;Layer: Drill PTH
;EasyEDA v6.1.52, Thu, 01 Aug 2019 06:05:33 GMT
;f60d05b6395e48559c91cf0b566a12eb,598dfe23a16d4e9298856295ca50c1c7,10
;Gerber Generator version 0.2
M48
INCH,LZ,00.0000
;Holesize 1 = 0.012 INCH
T01C0.012
;Holesize 2 = 0.028 INCH
T02C0.028
;Holesize 3 = 0.035 INCH
T03C0.035
;Holesize 4 = 0.036 INCH
T04C0.036
;Holesize 5 = 0.040 INCH
T05C0.040
;Holesize 6 = 0.047 INCH
T06C0.047
;Holesize 7 = 0.091 INCH
T07C0.091
%
G05
G90
T01
X+007600Y+011900
X+008200Y+011900
X+007300Y+016000
X+008150Y+016000
X+007000Y+016500
X+008150Y+016500
X+016100Y+013600
X+026400Y+000800
X+021800Y+014200
X+017800Y+015400
X+006200Y+003700
X+006500Y+003900
X+006800Y+004100
X+016400Y+004200
X+007100Y+004300
T02
X+017800Y+012400
X+018300Y+012400
X+018800Y+012400
X+020666Y+012400
X+021166Y+012400
X+021666Y+012400
X+026400Y+012400
X+026900Y+012400
X+027400Y+012400
X+023533Y+012400
X+024033Y+012400
X+024533Y+012400
T03
X+017300Y+002000
X+021600Y+002000
X+017300Y+004233
X+021600Y+004233
X+017300Y+006466
X+021600Y+006466
X+017300Y+008700
X+021600Y+008700
X+028000Y+002000
X+023700Y+002000
X+028000Y+004233
X+023700Y+004233
X+028000Y+006466
X+023700Y+006466
X+028000Y+008700
X+023700Y+008700
X+021700Y+018700
X+017400Y+018700
X+027600Y+018700
X+023300Y+018700
X+027600Y+016500
X+023300Y+016500
X+021700Y+016500
X+017400Y+016500
T04
X+012514Y+007067
X+011530Y+007067
X+009758Y+007067
X+010742Y+007067
X+012514Y+011200
X+011530Y+011200
X+009758Y+011200
X+010742Y+011200
X+012514Y+015233
X+011530Y+015233
X+009758Y+015233
X+010742Y+015233
X+012514Y+019267
X+011530Y+019267
X+009758Y+019267
X+010742Y+019267
T05
X+005699Y+000800
X+004699Y+000800
X+005699Y+001800
X+004699Y+001800
X+005699Y+002800
X+004699Y+002800
X+005699Y+003800
X+004699Y+003800
X+005699Y+004800
X+004699Y+004800
X+005699Y+005800
X+004699Y+005800
X+005699Y+006800
X+004699Y+006800
X+005699Y+007800
X+004699Y+007800
X+005699Y+008800
X+004699Y+008800
X+005699Y+009800
X+004699Y+009800
X+005699Y+010800
X+004699Y+010800
X+005699Y+011800
X+004699Y+011800
X+005699Y+012800
X+004699Y+012800
X+005699Y+013800
X+004699Y+013800
X+005699Y+014800
X+004699Y+014800
X+005699Y+015800
X+004699Y+015800
X+005699Y+016800
X+004699Y+016800
X+005699Y+017800
X+004699Y+017800
X+005699Y+018800
X+004699Y+018800
X+005699Y+019800
X+004699Y+019800
X+002099Y+000800
X+001099Y+000800
X+002099Y+001800
X+001099Y+001800
X+002099Y+002800
X+001099Y+002800
X+002099Y+003800
X+001099Y+003800
X+002099Y+004800
X+001099Y+004800
X+002099Y+005800
X+001099Y+005800
X+002099Y+006800
X+001099Y+006800
X+002099Y+007800
X+001099Y+007800
X+002099Y+008800
X+001099Y+008800
X+002099Y+009800
X+001099Y+009800
X+002099Y+010800
X+001099Y+010800
X+002099Y+011800
X+001099Y+011800
X+002099Y+012800
X+001099Y+012800
X+002099Y+013800
X+001099Y+013800
X+002099Y+014800
X+001099Y+014800
X+002099Y+015800
X+001099Y+015800
X+002099Y+016800
X+001099Y+016800
X+002099Y+017800
X+001099Y+017800
X+002099Y+018800
X+001099Y+018800
X+002099Y+019800
X+001099Y+019800
X+009700Y+002799
X+010700Y+002799
X+011700Y+002799
X+012700Y+002799
T06
X+012036Y+006202
X+010236Y+006202
X+012036Y+010336
X+010236Y+010336
X+012036Y+014369
X+010236Y+014369
X+012036Y+018402
X+010236Y+018402
T07
X+008600Y+006200
X+013636Y+006202
X+008600Y+010333
X+013636Y+010336
X+008600Y+014366
X+013636Y+014369
X+008600Y+018400
X+013636Y+018402
M30
