G04 Layer: BottomSolderMaskLayer*
G04 EasyEDA v6.1.52, Thu, 01 Aug 2019 06:05:33 GMT*
G04 f60d05b6395e48559c91cf0b566a12eb,598dfe23a16d4e9298856295ca50c1c7,10*
G04 Gerber Generator version 0.2*
G04 Scale: 100 percent, Rotated: No, Reflected: No *
G04 Dimensions in inches *
G04 leading zeros omitted , absolute positions ,2 integer and 4 decimal *
%FSLAX24Y24*%
%MOIN*%
G90*
G70D02*

%ADD27C,0.118240*%
%ADD28R,0.040000X0.046000*%
%ADD29C,0.047000*%
%ADD30C,0.082000*%
%ADD32C,0.070990*%
%ADD33C,0.055240*%

%LPD*%
G54D27*
G01X8600Y5924D02*
G01X8600Y6475D01*
G01X13636Y5927D02*
G01X13636Y6478D01*
G01X8600Y10057D02*
G01X8600Y10608D01*
G01X13636Y10060D02*
G01X13636Y10611D01*
G01X8600Y14091D02*
G01X8600Y14642D01*
G01X13636Y14093D02*
G01X13636Y14645D01*
G01X8600Y18124D02*
G01X8600Y18675D01*
G01X13636Y18127D02*
G01X13636Y18678D01*
G54D28*
G01X17800Y12400D03*
G54D29*
G01X18300Y12400D03*
G01X18800Y12400D03*
G54D28*
G01X20666Y12400D03*
G54D29*
G01X21166Y12400D03*
G01X21666Y12400D03*
G54D28*
G01X26400Y12400D03*
G54D29*
G01X26900Y12400D03*
G01X27400Y12400D03*
G54D28*
G01X23533Y12400D03*
G54D29*
G01X24033Y12400D03*
G01X24533Y12400D03*
G54D30*
G01X17300Y2000D03*
G01X21600Y2000D03*
G01X17300Y4233D03*
G01X21600Y4233D03*
G01X17300Y6466D03*
G01X21600Y6466D03*
G01X17300Y8700D03*
G01X21600Y8700D03*
G01X28000Y2000D03*
G01X23700Y2000D03*
G01X28000Y4233D03*
G01X23700Y4233D03*
G01X28000Y6466D03*
G01X23700Y6466D03*
G01X28000Y8700D03*
G01X23700Y8700D03*
G01X21700Y18700D03*
G01X17400Y18700D03*
G01X27600Y18700D03*
G01X23300Y18700D03*
G01X27600Y16500D03*
G01X23300Y16500D03*
G01X21700Y16500D03*
G01X17400Y16500D03*
G36*
G01X12160Y6711D02*
G01X12160Y7421D01*
G01X12869Y7421D01*
G01X12869Y6711D01*
G01X12160Y6711D01*
G37*
G54D32*
G01X11530Y7067D03*
G01X9758Y7067D03*
G01X10742Y7067D03*
G54D33*
G01X12036Y6202D03*
G01X10236Y6202D03*
G36*
G01X12160Y10846D02*
G01X12160Y11555D01*
G01X12869Y11555D01*
G01X12869Y10846D01*
G01X12160Y10846D01*
G37*
G54D32*
G01X11530Y11200D03*
G01X9758Y11200D03*
G01X10742Y11200D03*
G54D33*
G01X12036Y10336D03*
G01X10236Y10336D03*
G36*
G01X12160Y14878D02*
G01X12160Y15588D01*
G01X12869Y15588D01*
G01X12869Y14878D01*
G01X12160Y14878D01*
G37*
G54D32*
G01X11530Y15233D03*
G01X9758Y15233D03*
G01X10742Y15233D03*
G54D33*
G01X12036Y14369D03*
G01X10236Y14369D03*
G36*
G01X12160Y18911D02*
G01X12160Y19621D01*
G01X12869Y19621D01*
G01X12869Y18911D01*
G01X12160Y18911D01*
G37*
G54D32*
G01X11530Y19267D03*
G01X9758Y19267D03*
G01X10742Y19267D03*
G54D33*
G01X12036Y18402D03*
G01X10236Y18402D03*
G36*
G01X5381Y482D02*
G01X5381Y1119D01*
G01X6018Y1119D01*
G01X6018Y482D01*
G01X5381Y482D01*
G37*
G36*
G01X4380Y482D02*
G01X4380Y1119D01*
G01X5018Y1119D01*
G01X5018Y482D01*
G01X4380Y482D01*
G37*
G36*
G01X5381Y1482D02*
G01X5381Y2119D01*
G01X6018Y2119D01*
G01X6018Y1482D01*
G01X5381Y1482D01*
G37*
G36*
G01X4380Y1482D02*
G01X4380Y2119D01*
G01X5018Y2119D01*
G01X5018Y1482D01*
G01X4380Y1482D01*
G37*
G36*
G01X5381Y2482D02*
G01X5381Y3119D01*
G01X6018Y3119D01*
G01X6018Y2482D01*
G01X5381Y2482D01*
G37*
G36*
G01X4380Y2482D02*
G01X4380Y3119D01*
G01X5018Y3119D01*
G01X5018Y2482D01*
G01X4380Y2482D01*
G37*
G36*
G01X5381Y3482D02*
G01X5381Y4119D01*
G01X6018Y4119D01*
G01X6018Y3482D01*
G01X5381Y3482D01*
G37*
G36*
G01X4380Y3482D02*
G01X4380Y4119D01*
G01X5018Y4119D01*
G01X5018Y3482D01*
G01X4380Y3482D01*
G37*
G36*
G01X5381Y4482D02*
G01X5381Y5119D01*
G01X6018Y5119D01*
G01X6018Y4482D01*
G01X5381Y4482D01*
G37*
G36*
G01X4380Y4482D02*
G01X4380Y5119D01*
G01X5018Y5119D01*
G01X5018Y4482D01*
G01X4380Y4482D01*
G37*
G36*
G01X5381Y5482D02*
G01X5381Y6119D01*
G01X6018Y6119D01*
G01X6018Y5482D01*
G01X5381Y5482D01*
G37*
G36*
G01X4380Y5482D02*
G01X4380Y6119D01*
G01X5018Y6119D01*
G01X5018Y5482D01*
G01X4380Y5482D01*
G37*
G36*
G01X5381Y6482D02*
G01X5381Y7119D01*
G01X6018Y7119D01*
G01X6018Y6482D01*
G01X5381Y6482D01*
G37*
G36*
G01X4380Y6482D02*
G01X4380Y7119D01*
G01X5018Y7119D01*
G01X5018Y6482D01*
G01X4380Y6482D01*
G37*
G36*
G01X5381Y7482D02*
G01X5381Y8119D01*
G01X6018Y8119D01*
G01X6018Y7482D01*
G01X5381Y7482D01*
G37*
G36*
G01X4380Y7482D02*
G01X4380Y8119D01*
G01X5018Y8119D01*
G01X5018Y7482D01*
G01X4380Y7482D01*
G37*
G36*
G01X5381Y8482D02*
G01X5381Y9119D01*
G01X6018Y9119D01*
G01X6018Y8482D01*
G01X5381Y8482D01*
G37*
G36*
G01X4380Y8482D02*
G01X4380Y9119D01*
G01X5018Y9119D01*
G01X5018Y8482D01*
G01X4380Y8482D01*
G37*
G36*
G01X5381Y9482D02*
G01X5381Y10119D01*
G01X6018Y10119D01*
G01X6018Y9482D01*
G01X5381Y9482D01*
G37*
G36*
G01X4380Y9482D02*
G01X4380Y10119D01*
G01X5018Y10119D01*
G01X5018Y9482D01*
G01X4380Y9482D01*
G37*
G36*
G01X5381Y10482D02*
G01X5381Y11119D01*
G01X6018Y11119D01*
G01X6018Y10482D01*
G01X5381Y10482D01*
G37*
G36*
G01X4380Y10482D02*
G01X4380Y11119D01*
G01X5018Y11119D01*
G01X5018Y10482D01*
G01X4380Y10482D01*
G37*
G36*
G01X5381Y11482D02*
G01X5381Y12119D01*
G01X6018Y12119D01*
G01X6018Y11482D01*
G01X5381Y11482D01*
G37*
G36*
G01X4380Y11482D02*
G01X4380Y12119D01*
G01X5018Y12119D01*
G01X5018Y11482D01*
G01X4380Y11482D01*
G37*
G36*
G01X5381Y12482D02*
G01X5381Y13119D01*
G01X6018Y13119D01*
G01X6018Y12482D01*
G01X5381Y12482D01*
G37*
G36*
G01X4380Y12482D02*
G01X4380Y13119D01*
G01X5018Y13119D01*
G01X5018Y12482D01*
G01X4380Y12482D01*
G37*
G36*
G01X5381Y13482D02*
G01X5381Y14119D01*
G01X6018Y14119D01*
G01X6018Y13482D01*
G01X5381Y13482D01*
G37*
G36*
G01X4380Y13482D02*
G01X4380Y14119D01*
G01X5018Y14119D01*
G01X5018Y13482D01*
G01X4380Y13482D01*
G37*
G36*
G01X5381Y14482D02*
G01X5381Y15119D01*
G01X6018Y15119D01*
G01X6018Y14482D01*
G01X5381Y14482D01*
G37*
G36*
G01X4380Y14482D02*
G01X4380Y15119D01*
G01X5018Y15119D01*
G01X5018Y14482D01*
G01X4380Y14482D01*
G37*
G36*
G01X5381Y15482D02*
G01X5381Y16119D01*
G01X6018Y16119D01*
G01X6018Y15482D01*
G01X5381Y15482D01*
G37*
G36*
G01X4380Y15482D02*
G01X4380Y16119D01*
G01X5018Y16119D01*
G01X5018Y15482D01*
G01X4380Y15482D01*
G37*
G36*
G01X5381Y16482D02*
G01X5381Y17119D01*
G01X6018Y17119D01*
G01X6018Y16482D01*
G01X5381Y16482D01*
G37*
G36*
G01X4380Y16482D02*
G01X4380Y17119D01*
G01X5018Y17119D01*
G01X5018Y16482D01*
G01X4380Y16482D01*
G37*
G36*
G01X5381Y17482D02*
G01X5381Y18119D01*
G01X6018Y18119D01*
G01X6018Y17482D01*
G01X5381Y17482D01*
G37*
G36*
G01X4380Y17482D02*
G01X4380Y18119D01*
G01X5018Y18119D01*
G01X5018Y17482D01*
G01X4380Y17482D01*
G37*
G36*
G01X5381Y18482D02*
G01X5381Y19119D01*
G01X6018Y19119D01*
G01X6018Y18482D01*
G01X5381Y18482D01*
G37*
G36*
G01X4380Y18482D02*
G01X4380Y19119D01*
G01X5018Y19119D01*
G01X5018Y18482D01*
G01X4380Y18482D01*
G37*
G36*
G01X5381Y19482D02*
G01X5381Y20119D01*
G01X6018Y20119D01*
G01X6018Y19482D01*
G01X5381Y19482D01*
G37*
G36*
G01X4380Y19482D02*
G01X4380Y20119D01*
G01X5018Y20119D01*
G01X5018Y19482D01*
G01X4380Y19482D01*
G37*
G36*
G01X1780Y482D02*
G01X1780Y1119D01*
G01X2417Y1119D01*
G01X2417Y482D01*
G01X1780Y482D01*
G37*
G36*
G01X780Y482D02*
G01X780Y1119D01*
G01X1417Y1119D01*
G01X1417Y482D01*
G01X780Y482D01*
G37*
G36*
G01X1780Y1482D02*
G01X1780Y2119D01*
G01X2417Y2119D01*
G01X2417Y1482D01*
G01X1780Y1482D01*
G37*
G36*
G01X780Y1482D02*
G01X780Y2119D01*
G01X1417Y2119D01*
G01X1417Y1482D01*
G01X780Y1482D01*
G37*
G36*
G01X1780Y2482D02*
G01X1780Y3119D01*
G01X2417Y3119D01*
G01X2417Y2482D01*
G01X1780Y2482D01*
G37*
G36*
G01X780Y2482D02*
G01X780Y3119D01*
G01X1417Y3119D01*
G01X1417Y2482D01*
G01X780Y2482D01*
G37*
G36*
G01X1780Y3482D02*
G01X1780Y4119D01*
G01X2417Y4119D01*
G01X2417Y3482D01*
G01X1780Y3482D01*
G37*
G36*
G01X780Y3482D02*
G01X780Y4119D01*
G01X1417Y4119D01*
G01X1417Y3482D01*
G01X780Y3482D01*
G37*
G36*
G01X1780Y4482D02*
G01X1780Y5119D01*
G01X2417Y5119D01*
G01X2417Y4482D01*
G01X1780Y4482D01*
G37*
G36*
G01X780Y4482D02*
G01X780Y5119D01*
G01X1417Y5119D01*
G01X1417Y4482D01*
G01X780Y4482D01*
G37*
G36*
G01X1780Y5482D02*
G01X1780Y6119D01*
G01X2417Y6119D01*
G01X2417Y5482D01*
G01X1780Y5482D01*
G37*
G36*
G01X780Y5482D02*
G01X780Y6119D01*
G01X1417Y6119D01*
G01X1417Y5482D01*
G01X780Y5482D01*
G37*
G36*
G01X1780Y6482D02*
G01X1780Y7119D01*
G01X2417Y7119D01*
G01X2417Y6482D01*
G01X1780Y6482D01*
G37*
G36*
G01X780Y6482D02*
G01X780Y7119D01*
G01X1417Y7119D01*
G01X1417Y6482D01*
G01X780Y6482D01*
G37*
G36*
G01X1780Y7482D02*
G01X1780Y8119D01*
G01X2417Y8119D01*
G01X2417Y7482D01*
G01X1780Y7482D01*
G37*
G36*
G01X780Y7482D02*
G01X780Y8119D01*
G01X1417Y8119D01*
G01X1417Y7482D01*
G01X780Y7482D01*
G37*
G36*
G01X1780Y8482D02*
G01X1780Y9119D01*
G01X2417Y9119D01*
G01X2417Y8482D01*
G01X1780Y8482D01*
G37*
G36*
G01X780Y8482D02*
G01X780Y9119D01*
G01X1417Y9119D01*
G01X1417Y8482D01*
G01X780Y8482D01*
G37*
G36*
G01X1780Y9482D02*
G01X1780Y10119D01*
G01X2417Y10119D01*
G01X2417Y9482D01*
G01X1780Y9482D01*
G37*
G36*
G01X780Y9482D02*
G01X780Y10119D01*
G01X1417Y10119D01*
G01X1417Y9482D01*
G01X780Y9482D01*
G37*
G36*
G01X1780Y10482D02*
G01X1780Y11119D01*
G01X2417Y11119D01*
G01X2417Y10482D01*
G01X1780Y10482D01*
G37*
G36*
G01X780Y10482D02*
G01X780Y11119D01*
G01X1417Y11119D01*
G01X1417Y10482D01*
G01X780Y10482D01*
G37*
G36*
G01X1780Y11482D02*
G01X1780Y12119D01*
G01X2417Y12119D01*
G01X2417Y11482D01*
G01X1780Y11482D01*
G37*
G36*
G01X780Y11482D02*
G01X780Y12119D01*
G01X1417Y12119D01*
G01X1417Y11482D01*
G01X780Y11482D01*
G37*
G36*
G01X1780Y12482D02*
G01X1780Y13119D01*
G01X2417Y13119D01*
G01X2417Y12482D01*
G01X1780Y12482D01*
G37*
G36*
G01X780Y12482D02*
G01X780Y13119D01*
G01X1417Y13119D01*
G01X1417Y12482D01*
G01X780Y12482D01*
G37*
G36*
G01X1780Y13482D02*
G01X1780Y14119D01*
G01X2417Y14119D01*
G01X2417Y13482D01*
G01X1780Y13482D01*
G37*
G36*
G01X780Y13482D02*
G01X780Y14119D01*
G01X1417Y14119D01*
G01X1417Y13482D01*
G01X780Y13482D01*
G37*
G36*
G01X1780Y14482D02*
G01X1780Y15119D01*
G01X2417Y15119D01*
G01X2417Y14482D01*
G01X1780Y14482D01*
G37*
G36*
G01X780Y14482D02*
G01X780Y15119D01*
G01X1417Y15119D01*
G01X1417Y14482D01*
G01X780Y14482D01*
G37*
G36*
G01X1780Y15482D02*
G01X1780Y16119D01*
G01X2417Y16119D01*
G01X2417Y15482D01*
G01X1780Y15482D01*
G37*
G36*
G01X780Y15482D02*
G01X780Y16119D01*
G01X1417Y16119D01*
G01X1417Y15482D01*
G01X780Y15482D01*
G37*
G36*
G01X1780Y16482D02*
G01X1780Y17119D01*
G01X2417Y17119D01*
G01X2417Y16482D01*
G01X1780Y16482D01*
G37*
G36*
G01X780Y16482D02*
G01X780Y17119D01*
G01X1417Y17119D01*
G01X1417Y16482D01*
G01X780Y16482D01*
G37*
G36*
G01X1780Y17482D02*
G01X1780Y18119D01*
G01X2417Y18119D01*
G01X2417Y17482D01*
G01X1780Y17482D01*
G37*
G36*
G01X780Y17482D02*
G01X780Y18119D01*
G01X1417Y18119D01*
G01X1417Y17482D01*
G01X780Y17482D01*
G37*
G36*
G01X1780Y18482D02*
G01X1780Y19119D01*
G01X2417Y19119D01*
G01X2417Y18482D01*
G01X1780Y18482D01*
G37*
G36*
G01X780Y18482D02*
G01X780Y19119D01*
G01X1417Y19119D01*
G01X1417Y18482D01*
G01X780Y18482D01*
G37*
G36*
G01X1780Y19482D02*
G01X1780Y20119D01*
G01X2417Y20119D01*
G01X2417Y19482D01*
G01X1780Y19482D01*
G37*
G36*
G01X780Y19482D02*
G01X780Y20119D01*
G01X1417Y20119D01*
G01X1417Y19482D01*
G01X780Y19482D01*
G37*
G36*
G01X9381Y2480D02*
G01X9381Y3117D01*
G01X10018Y3117D01*
G01X10018Y2480D01*
G01X9381Y2480D01*
G37*
G36*
G01X10381Y2480D02*
G01X10381Y3117D01*
G01X11018Y3117D01*
G01X11018Y2480D01*
G01X10381Y2480D01*
G37*
G36*
G01X11381Y2480D02*
G01X11381Y3117D01*
G01X12018Y3117D01*
G01X12018Y2480D01*
G01X11381Y2480D01*
G37*
G36*
G01X12381Y2480D02*
G01X12381Y3117D01*
G01X13018Y3117D01*
G01X13018Y2480D01*
G01X12381Y2480D01*
G37*
M00*
M02*
