G04 Layer: BottomLayer*
G04 EasyEDA v6.1.52, Thu, 01 Aug 2019 06:05:33 GMT*
G04 f60d05b6395e48559c91cf0b566a12eb,598dfe23a16d4e9298856295ca50c1c7,10*
G04 Gerber Generator version 0.2*
G04 Scale: 100 percent, Rotated: No, Reflected: No *
G04 Dimensions in inches *
G04 leading zeros omitted , absolute positions ,2 integer and 4 decimal *
%FSLAX24Y24*%
%MOIN*%
G90*
G70D02*

%ADD11C,0.012000*%
%ADD12C,0.016000*%
%ADD13C,0.024400*%
%ADD14C,0.024000*%
%ADD15R,0.032000X0.038000*%
%ADD16C,0.039000*%
%ADD17C,0.074000*%
%ADD19C,0.062990*%
%ADD20C,0.047240*%
%ADD22C,0.110240*%

%LPD*%
G54D11*
G01X1099Y19800D02*
G01X1600Y19300D01*
G01X4600Y19300D01*
G01X4700Y19400D01*
G01X4699Y19400D01*
G01X4699Y19800D01*
G01X1099Y18800D02*
G01X1600Y18300D01*
G01X4600Y18300D01*
G01X4700Y18400D01*
G01X4699Y18400D01*
G01X4699Y18800D01*
G01X1099Y17800D02*
G01X1600Y17300D01*
G01X4600Y17300D01*
G01X4700Y17400D01*
G01X4699Y17400D01*
G01X4699Y17800D01*
G01X1099Y16800D02*
G01X1600Y16300D01*
G01X4600Y16300D01*
G01X4700Y16400D01*
G01X4699Y16400D01*
G01X4699Y16800D01*
G01X1099Y15800D02*
G01X1600Y15300D01*
G01X4600Y15300D01*
G01X4700Y15400D01*
G01X4699Y15400D01*
G01X4699Y15800D01*
G01X1099Y14800D02*
G01X1600Y14300D01*
G01X4600Y14300D01*
G01X4700Y14400D01*
G01X4699Y14400D01*
G01X4699Y14800D01*
G01X1099Y13800D02*
G01X1600Y13300D01*
G01X4600Y13300D01*
G01X4700Y13400D01*
G01X4699Y13400D01*
G01X4699Y13800D01*
G01X1099Y12800D02*
G01X1600Y12300D01*
G01X4600Y12300D01*
G01X4700Y12400D01*
G01X4699Y12400D01*
G01X4699Y12800D01*
G01X1099Y11800D02*
G01X1600Y11300D01*
G01X4500Y11300D01*
G01X4700Y11500D01*
G01X4699Y11500D01*
G01X4699Y11800D01*
G01X1099Y10800D02*
G01X1600Y10300D01*
G01X4600Y10300D01*
G01X4700Y10400D01*
G01X4699Y10400D01*
G01X4699Y10800D01*
G01X1099Y9800D02*
G01X1600Y9300D01*
G01X4600Y9300D01*
G01X4700Y9400D01*
G01X4699Y9400D01*
G01X4699Y9800D01*
G01X1099Y8800D02*
G01X1600Y8300D01*
G01X4600Y8300D01*
G01X4700Y8400D01*
G01X4699Y8400D01*
G01X4699Y8800D01*
G01X1099Y7800D02*
G01X1600Y7300D01*
G01X4600Y7300D01*
G01X4700Y7400D01*
G01X4699Y7400D01*
G01X4699Y7800D01*
G01X1099Y6800D02*
G01X1600Y6300D01*
G01X4500Y6300D01*
G01X4700Y6500D01*
G01X4699Y6500D01*
G01X4699Y6800D01*
G01X1099Y5800D02*
G01X1600Y5300D01*
G01X4600Y5300D01*
G01X4700Y5400D01*
G01X4699Y5400D01*
G01X4699Y5800D01*
G01X1099Y4800D02*
G01X1600Y4300D01*
G01X4600Y4300D01*
G01X4700Y4400D01*
G01X4699Y4400D01*
G01X4699Y4800D01*
G01X1099Y3800D02*
G01X1600Y3300D01*
G01X4600Y3300D01*
G01X4700Y3400D01*
G01X4699Y3400D01*
G01X4699Y3800D01*
G01X1099Y2800D02*
G01X1600Y2300D01*
G01X4600Y2300D01*
G01X4700Y2400D01*
G01X4699Y2400D01*
G01X4699Y2800D01*
G01X1099Y1800D02*
G01X1600Y1300D01*
G01X4600Y1300D01*
G01X4700Y1400D01*
G01X4699Y1400D01*
G01X4699Y1800D01*
G01X1099Y800D02*
G01X1600Y300D01*
G01X4500Y300D01*
G01X4700Y500D01*
G01X4699Y500D01*
G01X4699Y800D01*
G01X4600Y19300D02*
G01X7500Y19300D01*
G01X7850Y18950D01*
G01X7850Y9350D01*
G01X9200Y8000D01*
G01X10400Y8000D01*
G01X10700Y7700D01*
G01X10700Y7109D01*
G01X10743Y7067D01*
G01X4600Y18300D02*
G01X7200Y18300D01*
G01X7600Y17900D01*
G01X7600Y11900D01*
G54D12*
G01X8200Y11900D02*
G01X10043Y11900D01*
G01X10742Y11200D01*
G01X10742Y15233D02*
G01X10742Y15757D01*
G01X10500Y16000D01*
G01X8150Y16000D01*
G54D11*
G01X4600Y17300D02*
G01X7300Y17300D01*
G01X7300Y16000D01*
G54D12*
G01X8150Y16500D02*
G01X10400Y16500D01*
G01X10800Y16900D01*
G01X10800Y19209D01*
G01X10742Y19266D01*
G54D11*
G01X4699Y15800D02*
G01X4700Y15800D01*
G01X5200Y16300D01*
G01X6800Y16300D01*
G01X7000Y16500D01*
G54D12*
G01X12514Y11200D02*
G01X12514Y11215D01*
G01X14500Y13200D01*
G01X15900Y14600D01*
G01X21400Y14600D01*
G01X23300Y16500D01*
G01X12514Y15233D02*
G01X12533Y15233D01*
G01X14800Y17500D01*
G01X22100Y17500D01*
G01X23300Y18700D01*
G01X16100Y13600D02*
G01X14500Y12000D01*
G01X14500Y9700D01*
G01X13800Y9000D01*
G01X12800Y9000D01*
G01X12500Y8700D01*
G01X12514Y8684D01*
G01X12514Y7067D01*
G54D11*
G01X4500Y300D02*
G01X26700Y300D01*
G01X27200Y800D01*
G01X27200Y11400D01*
G01X27400Y11600D01*
G01X27400Y12400D01*
G54D12*
G01X27400Y12400D02*
G01X27400Y13000D01*
G01X27200Y13200D01*
G01X25333Y13200D01*
G01X24533Y12400D01*
G01X25333Y13200D02*
G01X22466Y13200D01*
G01X21666Y12400D01*
G01X22466Y13200D02*
G01X19600Y13200D01*
G01X18800Y12400D01*
G01X28000Y8700D02*
G01X28000Y6466D01*
G01X28000Y6466D02*
G01X28000Y4233D01*
G01X28000Y4233D02*
G01X28000Y2000D01*
G54D11*
G01X4549Y2300D02*
G01X6200Y2300D01*
G01X6400Y2100D01*
G01X6400Y1100D01*
G01X6700Y800D01*
G01X26400Y800D01*
G54D12*
G01X23700Y4233D02*
G01X23700Y4800D01*
G01X22900Y5600D01*
G01X22900Y11300D01*
G01X22500Y11700D01*
G01X21400Y11700D01*
G01X21200Y11900D01*
G01X21200Y12366D01*
G01X21166Y12400D01*
G01X23700Y2000D02*
G01X23700Y2900D01*
G01X22800Y3800D01*
G01X22800Y4800D01*
G01X22400Y5200D01*
G01X22400Y10800D01*
G01X22000Y11200D01*
G01X18800Y11200D01*
G01X18300Y11700D01*
G01X18300Y12400D01*
G01X21800Y14200D02*
G01X26800Y14200D01*
G01X27600Y15000D01*
G01X27600Y16500D01*
G01X4699Y1800D02*
G01X4699Y800D01*
G01X17800Y15400D02*
G01X20600Y15400D01*
G01X21700Y16500D01*
G54D11*
G01X17300Y8700D02*
G01X18700Y7300D01*
G01X18700Y3900D01*
G01X18200Y3400D01*
G01X6500Y3400D01*
G01X6200Y3700D01*
G01X17300Y6466D02*
G01X17933Y6466D01*
G01X18450Y5950D01*
G01X18450Y4000D01*
G01X18100Y3650D01*
G01X6750Y3650D01*
G01X6500Y3900D01*
G01X17300Y4233D02*
G01X17300Y4200D01*
G01X17000Y3900D01*
G01X7000Y3900D01*
G01X6800Y4100D01*
G01X16400Y4200D02*
G01X16400Y4150D01*
G01X7250Y4150D01*
G01X7100Y4300D01*
G54D15*
G01X17800Y12400D03*
G54D16*
G01X18300Y12400D03*
G01X18800Y12400D03*
G54D15*
G01X20666Y12400D03*
G54D16*
G01X21166Y12400D03*
G01X21666Y12400D03*
G54D15*
G01X26400Y12400D03*
G54D16*
G01X26900Y12400D03*
G01X27400Y12400D03*
G54D15*
G01X23533Y12400D03*
G54D16*
G01X24033Y12400D03*
G01X24533Y12400D03*
G54D17*
G01X17300Y2000D03*
G01X21600Y2000D03*
G01X17300Y4233D03*
G01X21600Y4233D03*
G01X17300Y6466D03*
G01X21600Y6466D03*
G01X17300Y8700D03*
G01X21600Y8700D03*
G01X28000Y2000D03*
G01X23700Y2000D03*
G01X28000Y4233D03*
G01X23700Y4233D03*
G01X28000Y6466D03*
G01X23700Y6466D03*
G01X28000Y8700D03*
G01X23700Y8700D03*
G01X21700Y18700D03*
G01X17400Y18700D03*
G01X27600Y18700D03*
G01X23300Y18700D03*
G01X27600Y16500D03*
G01X23300Y16500D03*
G01X21700Y16500D03*
G01X17400Y16500D03*
G36*
G01X12830Y6751D02*
G01X12200Y6751D01*
G01X12200Y7382D01*
G01X12830Y7382D01*
G01X12830Y6751D01*
G37*
G54D19*
G01X11530Y7067D03*
G01X9758Y7067D03*
G01X10742Y7067D03*
G54D20*
G01X12036Y6202D03*
G01X10236Y6202D03*
G36*
G01X12830Y10885D02*
G01X12200Y10885D01*
G01X12200Y11515D01*
G01X12830Y11515D01*
G01X12830Y10885D01*
G37*
G54D19*
G01X11530Y11200D03*
G01X9758Y11200D03*
G01X10742Y11200D03*
G54D20*
G01X12036Y10336D03*
G01X10236Y10336D03*
G36*
G01X12830Y14918D02*
G01X12200Y14918D01*
G01X12200Y15548D01*
G01X12830Y15548D01*
G01X12830Y14918D01*
G37*
G54D19*
G01X11530Y15233D03*
G01X9758Y15233D03*
G01X10742Y15233D03*
G54D20*
G01X12036Y14369D03*
G01X10236Y14369D03*
G36*
G01X12830Y18952D02*
G01X12200Y18952D01*
G01X12200Y19582D01*
G01X12830Y19582D01*
G01X12830Y18952D01*
G37*
G54D19*
G01X11530Y19267D03*
G01X9758Y19267D03*
G01X10742Y19267D03*
G54D20*
G01X12036Y18402D03*
G01X10236Y18402D03*
G36*
G01X5421Y521D02*
G01X5421Y1078D01*
G01X5977Y1078D01*
G01X5977Y521D01*
G01X5421Y521D01*
G37*
G36*
G01X4421Y521D02*
G01X4421Y1078D01*
G01X4977Y1078D01*
G01X4977Y521D01*
G01X4421Y521D01*
G37*
G36*
G01X5421Y1521D02*
G01X5421Y2078D01*
G01X5977Y2078D01*
G01X5977Y1521D01*
G01X5421Y1521D01*
G37*
G36*
G01X4421Y1521D02*
G01X4421Y2078D01*
G01X4977Y2078D01*
G01X4977Y1521D01*
G01X4421Y1521D01*
G37*
G36*
G01X5421Y2521D02*
G01X5421Y3078D01*
G01X5977Y3078D01*
G01X5977Y2521D01*
G01X5421Y2521D01*
G37*
G36*
G01X4421Y2521D02*
G01X4421Y3078D01*
G01X4977Y3078D01*
G01X4977Y2521D01*
G01X4421Y2521D01*
G37*
G36*
G01X5421Y3521D02*
G01X5421Y4078D01*
G01X5977Y4078D01*
G01X5977Y3521D01*
G01X5421Y3521D01*
G37*
G36*
G01X4421Y3521D02*
G01X4421Y4078D01*
G01X4977Y4078D01*
G01X4977Y3521D01*
G01X4421Y3521D01*
G37*
G36*
G01X5421Y4521D02*
G01X5421Y5078D01*
G01X5977Y5078D01*
G01X5977Y4521D01*
G01X5421Y4521D01*
G37*
G36*
G01X4421Y4521D02*
G01X4421Y5078D01*
G01X4977Y5078D01*
G01X4977Y4521D01*
G01X4421Y4521D01*
G37*
G36*
G01X5421Y5521D02*
G01X5421Y6078D01*
G01X5977Y6078D01*
G01X5977Y5521D01*
G01X5421Y5521D01*
G37*
G36*
G01X4421Y5521D02*
G01X4421Y6078D01*
G01X4977Y6078D01*
G01X4977Y5521D01*
G01X4421Y5521D01*
G37*
G36*
G01X5421Y6521D02*
G01X5421Y7078D01*
G01X5977Y7078D01*
G01X5977Y6521D01*
G01X5421Y6521D01*
G37*
G36*
G01X4421Y6521D02*
G01X4421Y7078D01*
G01X4977Y7078D01*
G01X4977Y6521D01*
G01X4421Y6521D01*
G37*
G36*
G01X5421Y7521D02*
G01X5421Y8078D01*
G01X5977Y8078D01*
G01X5977Y7521D01*
G01X5421Y7521D01*
G37*
G36*
G01X4421Y7521D02*
G01X4421Y8078D01*
G01X4977Y8078D01*
G01X4977Y7521D01*
G01X4421Y7521D01*
G37*
G36*
G01X5421Y8521D02*
G01X5421Y9078D01*
G01X5977Y9078D01*
G01X5977Y8521D01*
G01X5421Y8521D01*
G37*
G36*
G01X4421Y8521D02*
G01X4421Y9078D01*
G01X4977Y9078D01*
G01X4977Y8521D01*
G01X4421Y8521D01*
G37*
G36*
G01X5421Y9521D02*
G01X5421Y10078D01*
G01X5977Y10078D01*
G01X5977Y9521D01*
G01X5421Y9521D01*
G37*
G36*
G01X4421Y9521D02*
G01X4421Y10078D01*
G01X4977Y10078D01*
G01X4977Y9521D01*
G01X4421Y9521D01*
G37*
G36*
G01X5421Y10521D02*
G01X5421Y11078D01*
G01X5977Y11078D01*
G01X5977Y10521D01*
G01X5421Y10521D01*
G37*
G36*
G01X4421Y10521D02*
G01X4421Y11078D01*
G01X4977Y11078D01*
G01X4977Y10521D01*
G01X4421Y10521D01*
G37*
G36*
G01X5421Y11521D02*
G01X5421Y12078D01*
G01X5977Y12078D01*
G01X5977Y11521D01*
G01X5421Y11521D01*
G37*
G36*
G01X4421Y11521D02*
G01X4421Y12078D01*
G01X4977Y12078D01*
G01X4977Y11521D01*
G01X4421Y11521D01*
G37*
G36*
G01X5421Y12521D02*
G01X5421Y13078D01*
G01X5977Y13078D01*
G01X5977Y12521D01*
G01X5421Y12521D01*
G37*
G36*
G01X4421Y12521D02*
G01X4421Y13078D01*
G01X4977Y13078D01*
G01X4977Y12521D01*
G01X4421Y12521D01*
G37*
G36*
G01X5421Y13521D02*
G01X5421Y14078D01*
G01X5977Y14078D01*
G01X5977Y13521D01*
G01X5421Y13521D01*
G37*
G36*
G01X4421Y13521D02*
G01X4421Y14078D01*
G01X4977Y14078D01*
G01X4977Y13521D01*
G01X4421Y13521D01*
G37*
G36*
G01X5421Y14521D02*
G01X5421Y15078D01*
G01X5977Y15078D01*
G01X5977Y14521D01*
G01X5421Y14521D01*
G37*
G36*
G01X4421Y14521D02*
G01X4421Y15078D01*
G01X4977Y15078D01*
G01X4977Y14521D01*
G01X4421Y14521D01*
G37*
G36*
G01X5421Y15521D02*
G01X5421Y16078D01*
G01X5977Y16078D01*
G01X5977Y15521D01*
G01X5421Y15521D01*
G37*
G36*
G01X4421Y15521D02*
G01X4421Y16078D01*
G01X4977Y16078D01*
G01X4977Y15521D01*
G01X4421Y15521D01*
G37*
G36*
G01X5421Y16521D02*
G01X5421Y17078D01*
G01X5977Y17078D01*
G01X5977Y16521D01*
G01X5421Y16521D01*
G37*
G36*
G01X4421Y16521D02*
G01X4421Y17078D01*
G01X4977Y17078D01*
G01X4977Y16521D01*
G01X4421Y16521D01*
G37*
G36*
G01X5421Y17521D02*
G01X5421Y18078D01*
G01X5977Y18078D01*
G01X5977Y17521D01*
G01X5421Y17521D01*
G37*
G36*
G01X4421Y17521D02*
G01X4421Y18078D01*
G01X4977Y18078D01*
G01X4977Y17521D01*
G01X4421Y17521D01*
G37*
G36*
G01X5421Y18521D02*
G01X5421Y19078D01*
G01X5977Y19078D01*
G01X5977Y18521D01*
G01X5421Y18521D01*
G37*
G36*
G01X4421Y18521D02*
G01X4421Y19078D01*
G01X4977Y19078D01*
G01X4977Y18521D01*
G01X4421Y18521D01*
G37*
G36*
G01X5421Y19521D02*
G01X5421Y20078D01*
G01X5977Y20078D01*
G01X5977Y19521D01*
G01X5421Y19521D01*
G37*
G36*
G01X4421Y19521D02*
G01X4421Y20078D01*
G01X4977Y20078D01*
G01X4977Y19521D01*
G01X4421Y19521D01*
G37*
G36*
G01X1821Y521D02*
G01X1821Y1078D01*
G01X2378Y1078D01*
G01X2378Y521D01*
G01X1821Y521D01*
G37*
G36*
G01X821Y521D02*
G01X821Y1078D01*
G01X1378Y1078D01*
G01X1378Y521D01*
G01X821Y521D01*
G37*
G36*
G01X1821Y1521D02*
G01X1821Y2078D01*
G01X2378Y2078D01*
G01X2378Y1521D01*
G01X1821Y1521D01*
G37*
G36*
G01X821Y1521D02*
G01X821Y2078D01*
G01X1378Y2078D01*
G01X1378Y1521D01*
G01X821Y1521D01*
G37*
G36*
G01X1821Y2521D02*
G01X1821Y3078D01*
G01X2378Y3078D01*
G01X2378Y2521D01*
G01X1821Y2521D01*
G37*
G36*
G01X821Y2521D02*
G01X821Y3078D01*
G01X1378Y3078D01*
G01X1378Y2521D01*
G01X821Y2521D01*
G37*
G36*
G01X1821Y3521D02*
G01X1821Y4078D01*
G01X2378Y4078D01*
G01X2378Y3521D01*
G01X1821Y3521D01*
G37*
G36*
G01X821Y3521D02*
G01X821Y4078D01*
G01X1378Y4078D01*
G01X1378Y3521D01*
G01X821Y3521D01*
G37*
G36*
G01X1821Y4521D02*
G01X1821Y5078D01*
G01X2378Y5078D01*
G01X2378Y4521D01*
G01X1821Y4521D01*
G37*
G36*
G01X821Y4521D02*
G01X821Y5078D01*
G01X1378Y5078D01*
G01X1378Y4521D01*
G01X821Y4521D01*
G37*
G36*
G01X1821Y5521D02*
G01X1821Y6078D01*
G01X2378Y6078D01*
G01X2378Y5521D01*
G01X1821Y5521D01*
G37*
G36*
G01X821Y5521D02*
G01X821Y6078D01*
G01X1378Y6078D01*
G01X1378Y5521D01*
G01X821Y5521D01*
G37*
G36*
G01X1821Y6521D02*
G01X1821Y7078D01*
G01X2378Y7078D01*
G01X2378Y6521D01*
G01X1821Y6521D01*
G37*
G36*
G01X821Y6521D02*
G01X821Y7078D01*
G01X1378Y7078D01*
G01X1378Y6521D01*
G01X821Y6521D01*
G37*
G36*
G01X1821Y7521D02*
G01X1821Y8078D01*
G01X2378Y8078D01*
G01X2378Y7521D01*
G01X1821Y7521D01*
G37*
G36*
G01X821Y7521D02*
G01X821Y8078D01*
G01X1378Y8078D01*
G01X1378Y7521D01*
G01X821Y7521D01*
G37*
G36*
G01X1821Y8521D02*
G01X1821Y9078D01*
G01X2378Y9078D01*
G01X2378Y8521D01*
G01X1821Y8521D01*
G37*
G36*
G01X821Y8521D02*
G01X821Y9078D01*
G01X1378Y9078D01*
G01X1378Y8521D01*
G01X821Y8521D01*
G37*
G36*
G01X1821Y9521D02*
G01X1821Y10078D01*
G01X2378Y10078D01*
G01X2378Y9521D01*
G01X1821Y9521D01*
G37*
G36*
G01X821Y9521D02*
G01X821Y10078D01*
G01X1378Y10078D01*
G01X1378Y9521D01*
G01X821Y9521D01*
G37*
G36*
G01X1821Y10521D02*
G01X1821Y11078D01*
G01X2378Y11078D01*
G01X2378Y10521D01*
G01X1821Y10521D01*
G37*
G36*
G01X821Y10521D02*
G01X821Y11078D01*
G01X1378Y11078D01*
G01X1378Y10521D01*
G01X821Y10521D01*
G37*
G36*
G01X1821Y11521D02*
G01X1821Y12078D01*
G01X2378Y12078D01*
G01X2378Y11521D01*
G01X1821Y11521D01*
G37*
G36*
G01X821Y11521D02*
G01X821Y12078D01*
G01X1378Y12078D01*
G01X1378Y11521D01*
G01X821Y11521D01*
G37*
G36*
G01X1821Y12521D02*
G01X1821Y13078D01*
G01X2378Y13078D01*
G01X2378Y12521D01*
G01X1821Y12521D01*
G37*
G36*
G01X821Y12521D02*
G01X821Y13078D01*
G01X1378Y13078D01*
G01X1378Y12521D01*
G01X821Y12521D01*
G37*
G36*
G01X1821Y13521D02*
G01X1821Y14078D01*
G01X2378Y14078D01*
G01X2378Y13521D01*
G01X1821Y13521D01*
G37*
G36*
G01X821Y13521D02*
G01X821Y14078D01*
G01X1378Y14078D01*
G01X1378Y13521D01*
G01X821Y13521D01*
G37*
G36*
G01X1821Y14521D02*
G01X1821Y15078D01*
G01X2378Y15078D01*
G01X2378Y14521D01*
G01X1821Y14521D01*
G37*
G36*
G01X821Y14521D02*
G01X821Y15078D01*
G01X1378Y15078D01*
G01X1378Y14521D01*
G01X821Y14521D01*
G37*
G36*
G01X1821Y15521D02*
G01X1821Y16078D01*
G01X2378Y16078D01*
G01X2378Y15521D01*
G01X1821Y15521D01*
G37*
G36*
G01X821Y15521D02*
G01X821Y16078D01*
G01X1378Y16078D01*
G01X1378Y15521D01*
G01X821Y15521D01*
G37*
G36*
G01X1821Y16521D02*
G01X1821Y17078D01*
G01X2378Y17078D01*
G01X2378Y16521D01*
G01X1821Y16521D01*
G37*
G36*
G01X821Y16521D02*
G01X821Y17078D01*
G01X1378Y17078D01*
G01X1378Y16521D01*
G01X821Y16521D01*
G37*
G36*
G01X1821Y17521D02*
G01X1821Y18078D01*
G01X2378Y18078D01*
G01X2378Y17521D01*
G01X1821Y17521D01*
G37*
G36*
G01X821Y17521D02*
G01X821Y18078D01*
G01X1378Y18078D01*
G01X1378Y17521D01*
G01X821Y17521D01*
G37*
G36*
G01X1821Y18521D02*
G01X1821Y19078D01*
G01X2378Y19078D01*
G01X2378Y18521D01*
G01X1821Y18521D01*
G37*
G36*
G01X821Y18521D02*
G01X821Y19078D01*
G01X1378Y19078D01*
G01X1378Y18521D01*
G01X821Y18521D01*
G37*
G36*
G01X1821Y19521D02*
G01X1821Y20078D01*
G01X2378Y20078D01*
G01X2378Y19521D01*
G01X1821Y19521D01*
G37*
G36*
G01X821Y19521D02*
G01X821Y20078D01*
G01X1378Y20078D01*
G01X1378Y19521D01*
G01X821Y19521D01*
G37*
G36*
G01X9978Y3078D02*
G01X9978Y2521D01*
G01X9422Y2521D01*
G01X9422Y3078D01*
G01X9978Y3078D01*
G37*
G36*
G01X10978Y3078D02*
G01X10978Y2521D01*
G01X10422Y2521D01*
G01X10422Y3078D01*
G01X10978Y3078D01*
G37*
G36*
G01X11978Y3078D02*
G01X11978Y2521D01*
G01X11422Y2521D01*
G01X11422Y3078D01*
G01X11978Y3078D01*
G37*
G36*
G01X12978Y3078D02*
G01X12978Y2521D01*
G01X12422Y2521D01*
G01X12422Y3078D01*
G01X12978Y3078D01*
G37*
G54D13*
G01X7600Y11900D03*
G01X8200Y11900D03*
G01X7300Y16000D03*
G01X8150Y16000D03*
G01X7000Y16500D03*
G01X8150Y16500D03*
G01X16100Y13600D03*
G01X26400Y800D03*
G01X21800Y14200D03*
G01X17800Y15400D03*
G54D14*
G01X6200Y3700D03*
G01X6500Y3900D03*
G01X6800Y4100D03*
G01X16400Y4200D03*
G01X7100Y4300D03*
G54D22*
G01X8600Y5924D02*
G01X8600Y6475D01*
G01X13636Y5927D02*
G01X13636Y6478D01*
G01X8600Y10057D02*
G01X8600Y10608D01*
G01X13636Y10060D02*
G01X13636Y10611D01*
G01X8600Y14091D02*
G01X8600Y14642D01*
G01X13636Y14093D02*
G01X13636Y14645D01*
G01X8600Y18124D02*
G01X8600Y18675D01*
G01X13636Y18127D02*
G01X13636Y18678D01*
M00*
M02*
