G04 Layer: BottomSilkLayer*
G04 EasyEDA v6.1.52, Thu, 01 Aug 2019 06:05:33 GMT*
G04 f60d05b6395e48559c91cf0b566a12eb,598dfe23a16d4e9298856295ca50c1c7,10*
G04 Gerber Generator version 0.2*
G04 Scale: 100 percent, Rotated: No, Reflected: No *
G04 Dimensions in inches *
G04 leading zeros omitted , absolute positions ,2 integer and 4 decimal *
%FSLAX24Y24*%
%MOIN*%
G90*
G70D02*

%ADD25C,0.007870*%
%ADD26C,0.009840*%

%LPD*%
G54D25*
G01X13721Y5094D02*
G01X13721Y1953D01*
G01X13990Y1953D01*
G01X13990Y2078D01*
G01X13721Y2078D01*
G01X11002Y7465D02*
G01X11271Y7465D01*
G01X12986Y7465D02*
G01X13721Y7465D01*
G01X11789Y7465D02*
G01X12042Y7465D01*
G01X10482Y7465D02*
G01X10018Y7465D01*
G01X8552Y7465D02*
G01X9498Y7465D01*
G01X8552Y5094D02*
G01X8552Y1953D01*
G01X13721Y1953D01*
G01X8552Y1953D02*
G01X8281Y1953D01*
G01X8281Y2078D01*
G01X8552Y2078D01*
G01X13721Y9227D02*
G01X13721Y6085D01*
G01X13990Y6085D01*
G01X13990Y6211D01*
G01X13721Y6211D01*
G01X11002Y11597D02*
G01X11271Y11597D01*
G01X12986Y11597D02*
G01X13721Y11597D01*
G01X11789Y11597D02*
G01X12042Y11597D01*
G01X10482Y11597D02*
G01X10018Y11597D01*
G01X8552Y11597D02*
G01X9498Y11597D01*
G01X8552Y9227D02*
G01X8552Y6085D01*
G01X13721Y6085D01*
G01X8552Y6085D02*
G01X8281Y6085D01*
G01X8281Y6211D01*
G01X8552Y6211D01*
G01X13721Y13261D02*
G01X13721Y10119D01*
G01X13990Y10119D01*
G01X13990Y10245D01*
G01X13721Y10245D01*
G01X11002Y15631D02*
G01X11271Y15631D01*
G01X12986Y15631D02*
G01X13721Y15631D01*
G01X11789Y15631D02*
G01X12042Y15631D01*
G01X10482Y15631D02*
G01X10018Y15631D01*
G01X8552Y15631D02*
G01X9498Y15631D01*
G01X8552Y13261D02*
G01X8552Y10119D01*
G01X13721Y10119D01*
G01X8552Y10119D02*
G01X8281Y10119D01*
G01X8281Y10245D01*
G01X8552Y10245D01*
G01X13721Y17294D02*
G01X13721Y14153D01*
G01X13990Y14153D01*
G01X13990Y14278D01*
G01X13721Y14278D01*
G01X11002Y19665D02*
G01X11271Y19665D01*
G01X12986Y19665D02*
G01X13721Y19665D01*
G01X11789Y19665D02*
G01X12042Y19665D01*
G01X10482Y19665D02*
G01X10018Y19665D01*
G01X8552Y19665D02*
G01X9498Y19665D01*
G01X8552Y17294D02*
G01X8552Y14153D01*
G01X13721Y14153D01*
G01X8552Y14153D02*
G01X8281Y14153D01*
G01X8281Y14278D01*
G01X8552Y14278D01*
G54D26*
G75*
G01X12515Y7549D02*
G03X12505Y7550I0J49D01*
G01*
G75*
G01X12515Y11682D02*
G03X12505Y11683I0J49D01*
G01*
G75*
G01X12515Y15716D02*
G03X12505Y15717I0J49D01*
G01*
G75*
G01X12515Y19749D02*
G03X12505Y19750I0J49D01*
G01*
M00*
M02*
