G04 Layer: TopSilkLayer*
G04 EasyEDA v6.1.52, Thu, 01 Aug 2019 06:05:33 GMT*
G04 f60d05b6395e48559c91cf0b566a12eb,598dfe23a16d4e9298856295ca50c1c7,10*
G04 Gerber Generator version 0.2*
G04 Scale: 100 percent, Rotated: No, Reflected: No *
G04 Dimensions in inches *
G04 leading zeros omitted , absolute positions ,2 integer and 4 decimal *
%FSLAX24Y24*%
%MOIN*%
G90*
G70D02*

%ADD10C,0.010000*%
%ADD23C,0.007000*%
%ADD24C,0.006000*%

%LPD*%
G54D10*
G01X17542Y11869D02*
G01X19053Y11869D01*
G01X20408Y11869D02*
G01X21920Y11869D01*
G01X26142Y11869D02*
G01X27653Y11869D01*
G01X23275Y11869D02*
G01X24787Y11869D01*
G01X17900Y1400D02*
G01X17900Y2600D01*
G01X17900Y2600D02*
G01X21000Y2600D01*
G01X21000Y2600D02*
G01X21000Y1400D01*
G01X21000Y1400D02*
G01X17900Y1400D01*
G01X17900Y3632D02*
G01X17900Y4832D01*
G01X17900Y4832D02*
G01X21000Y4832D01*
G01X21000Y4832D02*
G01X21000Y3632D01*
G01X21000Y3632D02*
G01X17900Y3632D01*
G01X17900Y5867D02*
G01X17900Y7067D01*
G01X17900Y7067D02*
G01X21000Y7067D01*
G01X21000Y7067D02*
G01X21000Y5867D01*
G01X21000Y5867D02*
G01X17900Y5867D01*
G01X17900Y8100D02*
G01X17900Y9300D01*
G01X17900Y9300D02*
G01X21000Y9300D01*
G01X21000Y9300D02*
G01X21000Y8100D01*
G01X21000Y8100D02*
G01X17900Y8100D01*
G01X27400Y2600D02*
G01X27400Y1400D01*
G01X27400Y1400D02*
G01X24300Y1400D01*
G01X24300Y1400D02*
G01X24300Y2600D01*
G01X24300Y2600D02*
G01X27400Y2600D01*
G01X27400Y4833D02*
G01X27400Y3633D01*
G01X27400Y3633D02*
G01X24300Y3633D01*
G01X24300Y3633D02*
G01X24300Y4833D01*
G01X24300Y4833D02*
G01X27400Y4833D01*
G01X27400Y7066D02*
G01X27400Y5866D01*
G01X27400Y5866D02*
G01X24300Y5866D01*
G01X24300Y5866D02*
G01X24300Y7066D01*
G01X24300Y7066D02*
G01X27400Y7066D01*
G01X27400Y9300D02*
G01X27400Y8100D01*
G01X27400Y8100D02*
G01X24300Y8100D01*
G01X24300Y8100D02*
G01X24300Y9300D01*
G01X24300Y9300D02*
G01X27400Y9300D01*
G01X21100Y19300D02*
G01X21100Y18100D01*
G01X21100Y18100D02*
G01X18000Y18100D01*
G01X18000Y18100D02*
G01X18000Y19300D01*
G01X18000Y19300D02*
G01X21100Y19300D01*
G01X27000Y19300D02*
G01X27000Y18100D01*
G01X27000Y18100D02*
G01X23900Y18100D01*
G01X23900Y18100D02*
G01X23900Y19300D01*
G01X23900Y19300D02*
G01X27000Y19300D01*
G01X27000Y17100D02*
G01X27000Y15900D01*
G01X27000Y15900D02*
G01X23900Y15900D01*
G01X23900Y15900D02*
G01X23900Y17100D01*
G01X23900Y17100D02*
G01X27000Y17100D01*
G01X21100Y17100D02*
G01X21100Y15900D01*
G01X21100Y15900D02*
G01X18000Y15900D01*
G01X18000Y15900D02*
G01X18000Y17100D01*
G01X18000Y17100D02*
G01X21100Y17100D01*
G01X5950Y300D02*
G01X6200Y550D01*
G01X6200Y550D02*
G01X6200Y1050D01*
G01X6200Y1050D02*
G01X5950Y1300D01*
G01X5950Y1300D02*
G01X6200Y1550D01*
G01X6200Y1550D02*
G01X6200Y2050D01*
G01X6200Y2050D02*
G01X5950Y2300D01*
G01X5950Y2300D02*
G01X6200Y2550D01*
G01X6200Y2550D02*
G01X6200Y3050D01*
G01X6200Y3050D02*
G01X5950Y3300D01*
G01X5950Y3300D02*
G01X6200Y3550D01*
G01X6200Y3550D02*
G01X6200Y4050D01*
G01X6200Y4050D02*
G01X5950Y4300D01*
G01X5950Y4300D02*
G01X6200Y4550D01*
G01X6200Y4550D02*
G01X6200Y5050D01*
G01X6200Y5050D02*
G01X5950Y5300D01*
G01X5950Y5300D02*
G01X6200Y5550D01*
G01X6200Y5550D02*
G01X6200Y6050D01*
G01X6200Y6050D02*
G01X5950Y6300D01*
G01X5950Y300D02*
G01X4450Y300D01*
G01X4450Y300D02*
G01X4200Y550D01*
G01X4200Y550D02*
G01X4200Y1050D01*
G01X4200Y1050D02*
G01X4450Y1300D01*
G01X4450Y1300D02*
G01X4200Y1550D01*
G01X4200Y1550D02*
G01X4200Y2050D01*
G01X4200Y2050D02*
G01X4450Y2300D01*
G01X4450Y2300D02*
G01X4200Y2550D01*
G01X4200Y2550D02*
G01X4200Y3050D01*
G01X4200Y3050D02*
G01X4450Y3300D01*
G01X4450Y3300D02*
G01X4200Y3550D01*
G01X4200Y3550D02*
G01X4200Y4050D01*
G01X4200Y4050D02*
G01X4450Y4300D01*
G01X4450Y4300D02*
G01X4200Y4550D01*
G01X4200Y4550D02*
G01X4200Y5050D01*
G01X4200Y5050D02*
G01X4450Y5300D01*
G01X4450Y5300D02*
G01X4200Y5550D01*
G01X4200Y5550D02*
G01X4200Y6050D01*
G01X4200Y6050D02*
G01X4450Y6300D01*
G01X4450Y6300D02*
G01X4200Y6550D01*
G01X4200Y6550D02*
G01X4200Y7050D01*
G01X4200Y7050D02*
G01X4450Y7300D01*
G01X4450Y7300D02*
G01X4200Y7550D01*
G01X4200Y7550D02*
G01X4200Y8050D01*
G01X4200Y8050D02*
G01X4450Y8300D01*
G01X4450Y8300D02*
G01X4200Y8550D01*
G01X4200Y8550D02*
G01X4200Y9050D01*
G01X4200Y9050D02*
G01X4450Y9300D01*
G01X4450Y9300D02*
G01X4200Y9550D01*
G01X4200Y9550D02*
G01X4200Y10050D01*
G01X4200Y10050D02*
G01X4450Y10300D01*
G01X4450Y10300D02*
G01X4200Y10550D01*
G01X4200Y10550D02*
G01X4200Y11050D01*
G01X4200Y11050D02*
G01X4450Y11300D01*
G01X4450Y11300D02*
G01X4200Y11550D01*
G01X4200Y11550D02*
G01X4200Y12050D01*
G01X4450Y12300D02*
G01X4200Y12050D01*
G01X4450Y12300D02*
G01X4200Y12550D01*
G01X4200Y13050D02*
G01X4200Y12550D01*
G01X4200Y13050D02*
G01X4450Y13300D01*
G01X4450Y13300D02*
G01X4200Y13550D01*
G01X4200Y14050D02*
G01X4200Y13550D01*
G01X4200Y14050D02*
G01X4450Y14300D01*
G01X4450Y14300D02*
G01X4200Y14550D01*
G01X4200Y15050D02*
G01X4200Y14550D01*
G01X4200Y15050D02*
G01X4450Y15300D01*
G01X4450Y15300D02*
G01X4200Y15550D01*
G01X4200Y16050D02*
G01X4200Y15550D01*
G01X4200Y16050D02*
G01X4450Y16300D01*
G01X4450Y16300D02*
G01X4200Y16550D01*
G01X4200Y17050D02*
G01X4200Y16550D01*
G01X4200Y17050D02*
G01X4450Y17300D01*
G01X4450Y17300D02*
G01X4200Y17550D01*
G01X4200Y18050D02*
G01X4200Y17550D01*
G01X4200Y18050D02*
G01X4450Y18300D01*
G01X4450Y18300D02*
G01X4200Y18550D01*
G01X4200Y19050D02*
G01X4200Y18550D01*
G01X4200Y19050D02*
G01X4450Y19300D01*
G01X5950Y19300D02*
G01X6200Y19050D01*
G01X6200Y19050D02*
G01X6200Y18550D01*
G01X5950Y18300D02*
G01X6200Y18550D01*
G01X5950Y18300D02*
G01X6200Y18050D01*
G01X6200Y18050D02*
G01X6200Y17550D01*
G01X5950Y17300D02*
G01X6200Y17550D01*
G01X5950Y17300D02*
G01X6200Y17050D01*
G01X6200Y17050D02*
G01X6200Y16550D01*
G01X5950Y16300D02*
G01X6200Y16550D01*
G01X5950Y16300D02*
G01X6200Y16050D01*
G01X6200Y15550D02*
G01X6200Y16050D01*
G01X6200Y15550D02*
G01X5950Y15300D01*
G01X5950Y15300D02*
G01X6200Y15050D01*
G01X6200Y14550D02*
G01X6200Y15050D01*
G01X6200Y14550D02*
G01X5950Y14300D01*
G01X5950Y14300D02*
G01X6200Y14050D01*
G01X6200Y14050D02*
G01X6200Y13550D01*
G01X5950Y13300D02*
G01X6200Y13550D01*
G01X5950Y13300D02*
G01X6200Y13050D01*
G01X6200Y13050D02*
G01X6200Y12550D01*
G01X5950Y12300D02*
G01X6200Y12550D01*
G01X5950Y12300D02*
G01X6200Y12050D01*
G01X6200Y12050D02*
G01X6200Y11550D01*
G01X5950Y11300D02*
G01X6200Y11550D01*
G01X5950Y11300D02*
G01X6200Y11050D01*
G01X6200Y11050D02*
G01X6200Y10550D01*
G01X5950Y10300D02*
G01X6200Y10550D01*
G01X5950Y10300D02*
G01X6200Y10050D01*
G01X6200Y10050D02*
G01X6200Y9550D01*
G01X5950Y9300D02*
G01X6200Y9550D01*
G01X5950Y9300D02*
G01X6200Y9050D01*
G01X6200Y9050D02*
G01X6200Y8550D01*
G01X5950Y8300D02*
G01X6200Y8550D01*
G01X5950Y8300D02*
G01X6200Y8050D01*
G01X6200Y8050D02*
G01X6200Y7550D01*
G01X5950Y7300D02*
G01X6200Y7550D01*
G01X5950Y7300D02*
G01X6200Y7050D01*
G01X6200Y7050D02*
G01X6200Y6550D01*
G01X5950Y6300D02*
G01X6200Y6550D01*
G01X4450Y1300D02*
G01X5950Y1300D01*
G01X4450Y2300D02*
G01X5950Y2300D01*
G01X4450Y3300D02*
G01X5950Y3300D01*
G01X4450Y4300D02*
G01X5950Y4300D01*
G01X4450Y5300D02*
G01X5950Y5300D01*
G01X4450Y6300D02*
G01X5950Y6300D01*
G01X4450Y7300D02*
G01X5950Y7300D01*
G01X4450Y8300D02*
G01X5950Y8300D01*
G01X4450Y9300D02*
G01X5950Y9300D01*
G01X4450Y10300D02*
G01X5950Y10300D01*
G01X4450Y11300D02*
G01X5950Y11300D01*
G01X4450Y12300D02*
G01X5950Y12300D01*
G01X4450Y13300D02*
G01X5950Y13300D01*
G01X4450Y14300D02*
G01X5950Y14300D01*
G01X4450Y15300D02*
G01X5950Y15300D01*
G01X4450Y16300D02*
G01X5950Y16300D01*
G01X4450Y17300D02*
G01X5950Y17300D01*
G01X4450Y18300D02*
G01X5950Y18300D01*
G01X4450Y19300D02*
G01X5950Y19300D01*
G01X4450Y19300D02*
G01X4200Y19550D01*
G01X4200Y20050D02*
G01X4200Y19550D01*
G01X4200Y20050D02*
G01X4450Y20300D01*
G01X5950Y20300D02*
G01X6200Y20050D01*
G01X6200Y20050D02*
G01X6200Y19550D01*
G01X5950Y19300D02*
G01X6200Y19550D01*
G01X4450Y20300D02*
G01X5950Y20300D01*
G01X2350Y300D02*
G01X2600Y550D01*
G01X2600Y550D02*
G01X2600Y1050D01*
G01X2600Y1050D02*
G01X2350Y1300D01*
G01X2350Y1300D02*
G01X2600Y1550D01*
G01X2600Y1550D02*
G01X2600Y2050D01*
G01X2600Y2050D02*
G01X2350Y2300D01*
G01X2350Y2300D02*
G01X2600Y2550D01*
G01X2600Y2550D02*
G01X2600Y3050D01*
G01X2600Y3050D02*
G01X2350Y3300D01*
G01X2350Y3300D02*
G01X2600Y3550D01*
G01X2600Y3550D02*
G01X2600Y4050D01*
G01X2600Y4050D02*
G01X2350Y4300D01*
G01X2350Y4300D02*
G01X2600Y4550D01*
G01X2600Y4550D02*
G01X2600Y5050D01*
G01X2600Y5050D02*
G01X2350Y5300D01*
G01X2350Y5300D02*
G01X2600Y5550D01*
G01X2600Y5550D02*
G01X2600Y6050D01*
G01X2600Y6050D02*
G01X2350Y6300D01*
G01X2350Y300D02*
G01X850Y300D01*
G01X850Y300D02*
G01X600Y550D01*
G01X600Y550D02*
G01X600Y1050D01*
G01X600Y1050D02*
G01X850Y1300D01*
G01X850Y1300D02*
G01X600Y1550D01*
G01X600Y1550D02*
G01X600Y2050D01*
G01X600Y2050D02*
G01X850Y2300D01*
G01X850Y2300D02*
G01X600Y2550D01*
G01X600Y2550D02*
G01X600Y3050D01*
G01X600Y3050D02*
G01X850Y3300D01*
G01X850Y3300D02*
G01X600Y3550D01*
G01X600Y3550D02*
G01X600Y4050D01*
G01X600Y4050D02*
G01X850Y4300D01*
G01X850Y4300D02*
G01X600Y4550D01*
G01X600Y4550D02*
G01X600Y5050D01*
G01X600Y5050D02*
G01X850Y5300D01*
G01X850Y5300D02*
G01X600Y5550D01*
G01X600Y5550D02*
G01X600Y6050D01*
G01X600Y6050D02*
G01X850Y6300D01*
G01X850Y6300D02*
G01X600Y6550D01*
G01X600Y6550D02*
G01X600Y7050D01*
G01X600Y7050D02*
G01X850Y7300D01*
G01X850Y7300D02*
G01X600Y7550D01*
G01X600Y7550D02*
G01X600Y8050D01*
G01X600Y8050D02*
G01X850Y8300D01*
G01X850Y8300D02*
G01X600Y8550D01*
G01X600Y8550D02*
G01X600Y9050D01*
G01X600Y9050D02*
G01X850Y9300D01*
G01X850Y9300D02*
G01X600Y9550D01*
G01X600Y9550D02*
G01X600Y10050D01*
G01X600Y10050D02*
G01X850Y10300D01*
G01X850Y10300D02*
G01X600Y10550D01*
G01X600Y10550D02*
G01X600Y11050D01*
G01X600Y11050D02*
G01X850Y11300D01*
G01X850Y11300D02*
G01X600Y11550D01*
G01X600Y11550D02*
G01X600Y12050D01*
G01X850Y12300D02*
G01X600Y12050D01*
G01X850Y12300D02*
G01X600Y12550D01*
G01X600Y13050D02*
G01X600Y12550D01*
G01X600Y13050D02*
G01X850Y13300D01*
G01X850Y13300D02*
G01X600Y13550D01*
G01X600Y14050D02*
G01X600Y13550D01*
G01X600Y14050D02*
G01X850Y14300D01*
G01X850Y14300D02*
G01X600Y14550D01*
G01X600Y15050D02*
G01X600Y14550D01*
G01X600Y15050D02*
G01X850Y15300D01*
G01X850Y15300D02*
G01X600Y15550D01*
G01X600Y16050D02*
G01X600Y15550D01*
G01X600Y16050D02*
G01X850Y16300D01*
G01X850Y16300D02*
G01X600Y16550D01*
G01X600Y17050D02*
G01X600Y16550D01*
G01X600Y17050D02*
G01X850Y17300D01*
G01X850Y17300D02*
G01X600Y17550D01*
G01X600Y18050D02*
G01X600Y17550D01*
G01X600Y18050D02*
G01X850Y18300D01*
G01X850Y18300D02*
G01X600Y18550D01*
G01X600Y19050D02*
G01X600Y18550D01*
G01X600Y19050D02*
G01X850Y19300D01*
G01X2350Y19300D02*
G01X2600Y19050D01*
G01X2600Y19050D02*
G01X2600Y18550D01*
G01X2350Y18300D02*
G01X2600Y18550D01*
G01X2350Y18300D02*
G01X2600Y18050D01*
G01X2600Y18050D02*
G01X2600Y17550D01*
G01X2350Y17300D02*
G01X2600Y17550D01*
G01X2350Y17300D02*
G01X2600Y17050D01*
G01X2600Y17050D02*
G01X2600Y16550D01*
G01X2350Y16300D02*
G01X2600Y16550D01*
G01X2350Y16300D02*
G01X2600Y16050D01*
G01X2600Y15550D02*
G01X2600Y16050D01*
G01X2600Y15550D02*
G01X2350Y15300D01*
G01X2350Y15300D02*
G01X2600Y15050D01*
G01X2600Y14550D02*
G01X2600Y15050D01*
G01X2600Y14550D02*
G01X2350Y14300D01*
G01X2350Y14300D02*
G01X2600Y14050D01*
G01X2600Y14050D02*
G01X2600Y13550D01*
G01X2350Y13300D02*
G01X2600Y13550D01*
G01X2350Y13300D02*
G01X2600Y13050D01*
G01X2600Y13050D02*
G01X2600Y12550D01*
G01X2350Y12300D02*
G01X2600Y12550D01*
G01X2350Y12300D02*
G01X2600Y12050D01*
G01X2600Y12050D02*
G01X2600Y11550D01*
G01X2350Y11300D02*
G01X2600Y11550D01*
G01X2350Y11300D02*
G01X2600Y11050D01*
G01X2600Y11050D02*
G01X2600Y10550D01*
G01X2350Y10300D02*
G01X2600Y10550D01*
G01X2350Y10300D02*
G01X2600Y10050D01*
G01X2600Y10050D02*
G01X2600Y9550D01*
G01X2350Y9300D02*
G01X2600Y9550D01*
G01X2350Y9300D02*
G01X2600Y9050D01*
G01X2600Y9050D02*
G01X2600Y8550D01*
G01X2350Y8300D02*
G01X2600Y8550D01*
G01X2350Y8300D02*
G01X2600Y8050D01*
G01X2600Y8050D02*
G01X2600Y7550D01*
G01X2350Y7300D02*
G01X2600Y7550D01*
G01X2350Y7300D02*
G01X2600Y7050D01*
G01X2600Y7050D02*
G01X2600Y6550D01*
G01X2350Y6300D02*
G01X2600Y6550D01*
G01X850Y1300D02*
G01X2350Y1300D01*
G01X850Y2300D02*
G01X2350Y2300D01*
G01X850Y3300D02*
G01X2350Y3300D01*
G01X850Y4300D02*
G01X2350Y4300D01*
G01X850Y5300D02*
G01X2350Y5300D01*
G01X850Y6300D02*
G01X2350Y6300D01*
G01X850Y7300D02*
G01X2350Y7300D01*
G01X850Y8300D02*
G01X2350Y8300D01*
G01X850Y9300D02*
G01X2350Y9300D01*
G01X850Y10300D02*
G01X2350Y10300D01*
G01X850Y11300D02*
G01X2350Y11300D01*
G01X850Y12300D02*
G01X2350Y12300D01*
G01X850Y13300D02*
G01X2350Y13300D01*
G01X850Y14300D02*
G01X2350Y14300D01*
G01X850Y15300D02*
G01X2350Y15300D01*
G01X850Y16300D02*
G01X2350Y16300D01*
G01X850Y17300D02*
G01X2350Y17300D01*
G01X850Y18300D02*
G01X2350Y18300D01*
G01X850Y19300D02*
G01X2350Y19300D01*
G01X850Y19300D02*
G01X600Y19550D01*
G01X600Y20050D02*
G01X600Y19550D01*
G01X600Y20050D02*
G01X850Y20300D01*
G01X2350Y20300D02*
G01X2600Y20050D01*
G01X2600Y20050D02*
G01X2600Y19550D01*
G01X2350Y19300D02*
G01X2600Y19550D01*
G01X850Y20300D02*
G01X2350Y20300D01*
G54D23*
G01X18122Y11600D02*
G01X18081Y11580D01*
G01X18040Y11538D01*
G01X18019Y11498D01*
G01X17999Y11436D01*
G01X17999Y11334D01*
G01X18019Y11273D01*
G01X18040Y11232D01*
G01X18081Y11190D01*
G01X18122Y11171D01*
G01X18204Y11171D01*
G01X18244Y11190D01*
G01X18285Y11232D01*
G01X18306Y11273D01*
G01X18326Y11334D01*
G01X18326Y11436D01*
G01X18306Y11498D01*
G01X18285Y11538D01*
G01X18244Y11580D01*
G01X18204Y11600D01*
G01X18122Y11600D01*
G01X18183Y11253D02*
G01X18306Y11130D01*
G01X18461Y11519D02*
G01X18502Y11538D01*
G01X18564Y11600D01*
G01X18564Y11171D01*
G01X20889Y11600D02*
G01X20848Y11580D01*
G01X20807Y11538D01*
G01X20786Y11498D01*
G01X20766Y11436D01*
G01X20766Y11334D01*
G01X20786Y11273D01*
G01X20807Y11232D01*
G01X20848Y11190D01*
G01X20889Y11171D01*
G01X20971Y11171D01*
G01X21011Y11190D01*
G01X21052Y11232D01*
G01X21073Y11273D01*
G01X21093Y11334D01*
G01X21093Y11436D01*
G01X21073Y11498D01*
G01X21052Y11538D01*
G01X21011Y11580D01*
G01X20971Y11600D01*
G01X20889Y11600D01*
G01X20950Y11253D02*
G01X21073Y11130D01*
G01X21249Y11498D02*
G01X21249Y11519D01*
G01X21269Y11559D01*
G01X21290Y11580D01*
G01X21331Y11600D01*
G01X21412Y11600D01*
G01X21453Y11580D01*
G01X21474Y11559D01*
G01X21494Y11519D01*
G01X21494Y11478D01*
G01X21474Y11436D01*
G01X21433Y11375D01*
G01X21228Y11171D01*
G01X21515Y11171D01*
G01X26622Y11500D02*
G01X26581Y11480D01*
G01X26540Y11438D01*
G01X26519Y11398D01*
G01X26499Y11336D01*
G01X26499Y11234D01*
G01X26519Y11173D01*
G01X26540Y11132D01*
G01X26581Y11090D01*
G01X26622Y11071D01*
G01X26704Y11071D01*
G01X26744Y11090D01*
G01X26785Y11132D01*
G01X26806Y11173D01*
G01X26826Y11234D01*
G01X26826Y11336D01*
G01X26806Y11398D01*
G01X26785Y11438D01*
G01X26744Y11480D01*
G01X26704Y11500D01*
G01X26622Y11500D01*
G01X26683Y11153D02*
G01X26806Y11030D01*
G01X27002Y11500D02*
G01X27227Y11500D01*
G01X27104Y11336D01*
G01X27166Y11336D01*
G01X27207Y11315D01*
G01X27227Y11296D01*
G01X27248Y11234D01*
G01X27248Y11194D01*
G01X27227Y11132D01*
G01X27186Y11090D01*
G01X27125Y11071D01*
G01X27064Y11071D01*
G01X27002Y11090D01*
G01X26982Y11111D01*
G01X26961Y11153D01*
G01X23756Y11500D02*
G01X23715Y11480D01*
G01X23674Y11438D01*
G01X23653Y11398D01*
G01X23633Y11336D01*
G01X23633Y11234D01*
G01X23653Y11173D01*
G01X23674Y11132D01*
G01X23715Y11090D01*
G01X23756Y11071D01*
G01X23838Y11071D01*
G01X23878Y11090D01*
G01X23919Y11132D01*
G01X23940Y11173D01*
G01X23960Y11234D01*
G01X23960Y11336D01*
G01X23940Y11398D01*
G01X23919Y11438D01*
G01X23878Y11480D01*
G01X23838Y11500D01*
G01X23756Y11500D01*
G01X23817Y11153D02*
G01X23940Y11030D01*
G01X24300Y11500D02*
G01X24095Y11213D01*
G01X24402Y11213D01*
G01X24300Y11500D02*
G01X24300Y11071D01*
G01X19400Y3344D02*
G01X19400Y2915D01*
G01X19400Y3344D02*
G01X19584Y3344D01*
G01X19644Y3325D01*
G01X19665Y3305D01*
G01X19685Y3263D01*
G01X19685Y3223D01*
G01X19665Y3182D01*
G01X19644Y3161D01*
G01X19584Y3140D01*
G01X19400Y3140D01*
G01X19543Y3140D02*
G01X19685Y2915D01*
G01X19821Y3263D02*
G01X19861Y3284D01*
G01X19923Y3344D01*
G01X19923Y2915D01*
G01X19400Y5578D02*
G01X19400Y5149D01*
G01X19400Y5578D02*
G01X19584Y5578D01*
G01X19644Y5558D01*
G01X19665Y5538D01*
G01X19685Y5497D01*
G01X19685Y5456D01*
G01X19665Y5415D01*
G01X19644Y5394D01*
G01X19584Y5374D01*
G01X19400Y5374D01*
G01X19543Y5374D02*
G01X19685Y5149D01*
G01X19842Y5476D02*
G01X19842Y5497D01*
G01X19861Y5538D01*
G01X19882Y5558D01*
G01X19923Y5578D01*
G01X20005Y5578D01*
G01X20046Y5558D01*
G01X20067Y5538D01*
G01X20086Y5497D01*
G01X20086Y5456D01*
G01X20067Y5415D01*
G01X20026Y5353D01*
G01X19821Y5149D01*
G01X20107Y5149D01*
G01X19400Y7811D02*
G01X19400Y7382D01*
G01X19400Y7811D02*
G01X19584Y7811D01*
G01X19644Y7791D01*
G01X19665Y7771D01*
G01X19685Y7730D01*
G01X19685Y7689D01*
G01X19665Y7648D01*
G01X19644Y7627D01*
G01X19584Y7607D01*
G01X19400Y7607D01*
G01X19543Y7607D02*
G01X19685Y7382D01*
G01X19861Y7811D02*
G01X20086Y7811D01*
G01X19964Y7648D01*
G01X20026Y7648D01*
G01X20067Y7627D01*
G01X20086Y7607D01*
G01X20107Y7546D01*
G01X20107Y7505D01*
G01X20086Y7443D01*
G01X20046Y7402D01*
G01X19985Y7382D01*
G01X19923Y7382D01*
G01X19861Y7402D01*
G01X19842Y7423D01*
G01X19821Y7464D01*
G01X19400Y10044D02*
G01X19400Y9615D01*
G01X19400Y10044D02*
G01X19584Y10044D01*
G01X19644Y10025D01*
G01X19665Y10005D01*
G01X19685Y9963D01*
G01X19685Y9923D01*
G01X19665Y9882D01*
G01X19644Y9861D01*
G01X19584Y9840D01*
G01X19400Y9840D01*
G01X19543Y9840D02*
G01X19685Y9615D01*
G01X20026Y10044D02*
G01X19821Y9759D01*
G01X20127Y9759D01*
G01X20026Y10044D02*
G01X20026Y9615D01*
G01X25900Y1144D02*
G01X25900Y715D01*
G01X25900Y1144D02*
G01X26084Y1144D01*
G01X26144Y1125D01*
G01X26165Y1105D01*
G01X26185Y1063D01*
G01X26185Y1023D01*
G01X26165Y982D01*
G01X26144Y961D01*
G01X26084Y940D01*
G01X25900Y940D01*
G01X26043Y940D02*
G01X26185Y715D01*
G01X26567Y1144D02*
G01X26361Y1144D01*
G01X26342Y961D01*
G01X26361Y982D01*
G01X26423Y1001D01*
G01X26485Y1001D01*
G01X26546Y982D01*
G01X26586Y940D01*
G01X26607Y880D01*
G01X26607Y838D01*
G01X26586Y776D01*
G01X26546Y736D01*
G01X26485Y715D01*
G01X26423Y715D01*
G01X26361Y736D01*
G01X26342Y757D01*
G01X26321Y798D01*
G01X25900Y3378D02*
G01X25900Y2949D01*
G01X25900Y3378D02*
G01X26084Y3378D01*
G01X26144Y3358D01*
G01X26165Y3338D01*
G01X26185Y3297D01*
G01X26185Y3256D01*
G01X26165Y3215D01*
G01X26144Y3194D01*
G01X26084Y3174D01*
G01X25900Y3174D01*
G01X26043Y3174D02*
G01X26185Y2949D01*
G01X26567Y3317D02*
G01X26546Y3358D01*
G01X26485Y3378D01*
G01X26443Y3378D01*
G01X26382Y3358D01*
G01X26342Y3297D01*
G01X26321Y3194D01*
G01X26321Y3092D01*
G01X26342Y3010D01*
G01X26382Y2969D01*
G01X26443Y2949D01*
G01X26464Y2949D01*
G01X26526Y2969D01*
G01X26567Y3010D01*
G01X26586Y3072D01*
G01X26586Y3092D01*
G01X26567Y3153D01*
G01X26526Y3194D01*
G01X26464Y3215D01*
G01X26443Y3215D01*
G01X26382Y3194D01*
G01X26342Y3153D01*
G01X26321Y3092D01*
G01X25900Y5611D02*
G01X25900Y5182D01*
G01X25900Y5611D02*
G01X26084Y5611D01*
G01X26144Y5591D01*
G01X26165Y5571D01*
G01X26185Y5530D01*
G01X26185Y5489D01*
G01X26165Y5448D01*
G01X26144Y5427D01*
G01X26084Y5407D01*
G01X25900Y5407D01*
G01X26043Y5407D02*
G01X26185Y5182D01*
G01X26607Y5611D02*
G01X26402Y5182D01*
G01X26321Y5611D02*
G01X26607Y5611D01*
G01X25900Y7844D02*
G01X25900Y7415D01*
G01X25900Y7844D02*
G01X26084Y7844D01*
G01X26144Y7825D01*
G01X26165Y7805D01*
G01X26185Y7763D01*
G01X26185Y7723D01*
G01X26165Y7682D01*
G01X26144Y7661D01*
G01X26084Y7640D01*
G01X25900Y7640D01*
G01X26043Y7640D02*
G01X26185Y7415D01*
G01X26423Y7844D02*
G01X26361Y7825D01*
G01X26342Y7784D01*
G01X26342Y7742D01*
G01X26361Y7701D01*
G01X26402Y7682D01*
G01X26485Y7661D01*
G01X26546Y7640D01*
G01X26586Y7600D01*
G01X26607Y7559D01*
G01X26607Y7498D01*
G01X26586Y7457D01*
G01X26567Y7436D01*
G01X26505Y7415D01*
G01X26423Y7415D01*
G01X26361Y7436D01*
G01X26342Y7457D01*
G01X26321Y7498D01*
G01X26321Y7559D01*
G01X26342Y7600D01*
G01X26382Y7640D01*
G01X26443Y7661D01*
G01X26526Y7682D01*
G01X26567Y7701D01*
G01X26586Y7742D01*
G01X26586Y7784D01*
G01X26567Y7825D01*
G01X26505Y7844D01*
G01X26423Y7844D01*
G01X19600Y17844D02*
G01X19600Y17415D01*
G01X19600Y17844D02*
G01X19784Y17844D01*
G01X19844Y17825D01*
G01X19865Y17805D01*
G01X19885Y17763D01*
G01X19885Y17723D01*
G01X19865Y17682D01*
G01X19844Y17661D01*
G01X19784Y17640D01*
G01X19600Y17640D01*
G01X19743Y17640D02*
G01X19885Y17415D01*
G01X20286Y17702D02*
G01X20267Y17640D01*
G01X20226Y17600D01*
G01X20164Y17580D01*
G01X20143Y17580D01*
G01X20082Y17600D01*
G01X20042Y17640D01*
G01X20021Y17702D01*
G01X20021Y17723D01*
G01X20042Y17784D01*
G01X20082Y17825D01*
G01X20143Y17844D01*
G01X20164Y17844D01*
G01X20226Y17825D01*
G01X20267Y17784D01*
G01X20286Y17702D01*
G01X20286Y17600D01*
G01X20267Y17498D01*
G01X20226Y17436D01*
G01X20164Y17415D01*
G01X20123Y17415D01*
G01X20061Y17436D01*
G01X20042Y17477D01*
G01X25500Y17844D02*
G01X25500Y17415D01*
G01X25500Y17844D02*
G01X25684Y17844D01*
G01X25744Y17825D01*
G01X25765Y17805D01*
G01X25785Y17763D01*
G01X25785Y17723D01*
G01X25765Y17682D01*
G01X25744Y17661D01*
G01X25684Y17640D01*
G01X25500Y17640D01*
G01X25643Y17640D02*
G01X25785Y17415D01*
G01X25921Y17763D02*
G01X25961Y17784D01*
G01X26023Y17844D01*
G01X26023Y17415D01*
G01X26281Y17844D02*
G01X26219Y17825D01*
G01X26178Y17763D01*
G01X26159Y17661D01*
G01X26159Y17600D01*
G01X26178Y17498D01*
G01X26219Y17436D01*
G01X26281Y17415D01*
G01X26322Y17415D01*
G01X26384Y17436D01*
G01X26425Y17498D01*
G01X26444Y17600D01*
G01X26444Y17661D01*
G01X26425Y17763D01*
G01X26384Y17825D01*
G01X26322Y17844D01*
G01X26281Y17844D01*
G01X25500Y15644D02*
G01X25500Y15215D01*
G01X25500Y15644D02*
G01X25684Y15644D01*
G01X25744Y15625D01*
G01X25765Y15605D01*
G01X25785Y15563D01*
G01X25785Y15523D01*
G01X25765Y15482D01*
G01X25744Y15461D01*
G01X25684Y15440D01*
G01X25500Y15440D01*
G01X25643Y15440D02*
G01X25785Y15215D01*
G01X25921Y15563D02*
G01X25961Y15584D01*
G01X26023Y15644D01*
G01X26023Y15215D01*
G01X26159Y15563D02*
G01X26200Y15584D01*
G01X26260Y15644D01*
G01X26260Y15215D01*
G01X19600Y15644D02*
G01X19600Y15215D01*
G01X19600Y15644D02*
G01X19784Y15644D01*
G01X19844Y15625D01*
G01X19865Y15605D01*
G01X19885Y15563D01*
G01X19885Y15523D01*
G01X19865Y15482D01*
G01X19844Y15461D01*
G01X19784Y15440D01*
G01X19600Y15440D01*
G01X19743Y15440D02*
G01X19885Y15215D01*
G01X20021Y15563D02*
G01X20061Y15584D01*
G01X20123Y15644D01*
G01X20123Y15215D01*
G01X20278Y15542D02*
G01X20278Y15563D01*
G01X20300Y15605D01*
G01X20319Y15625D01*
G01X20360Y15644D01*
G01X20443Y15644D01*
G01X20484Y15625D01*
G01X20503Y15605D01*
G01X20525Y15563D01*
G01X20525Y15523D01*
G01X20503Y15482D01*
G01X20463Y15419D01*
G01X20259Y15215D01*
G01X20544Y15215D01*
G01X10955Y5505D02*
G01X11282Y5505D01*
G01X11343Y5484D01*
G01X11364Y5464D01*
G01X11384Y5423D01*
G01X11384Y5382D01*
G01X11364Y5341D01*
G01X11343Y5320D01*
G01X11282Y5300D01*
G01X11241Y5300D01*
G01X11036Y5640D02*
G01X11016Y5680D01*
G01X10955Y5742D01*
G01X11384Y5742D01*
G01X11000Y9379D02*
G01X11327Y9379D01*
G01X11388Y9358D01*
G01X11409Y9338D01*
G01X11428Y9297D01*
G01X11428Y9256D01*
G01X11409Y9215D01*
G01X11388Y9194D01*
G01X11327Y9174D01*
G01X11285Y9174D01*
G01X11102Y9534D02*
G01X11081Y9534D01*
G01X11039Y9554D01*
G01X11019Y9575D01*
G01X11000Y9616D01*
G01X11000Y9698D01*
G01X11019Y9739D01*
G01X11039Y9759D01*
G01X11081Y9779D01*
G01X11122Y9779D01*
G01X11163Y9759D01*
G01X11225Y9718D01*
G01X11428Y9514D01*
G01X11428Y9800D01*
G01X10899Y13378D02*
G01X11226Y13378D01*
G01X11287Y13357D01*
G01X11308Y13338D01*
G01X11328Y13296D01*
G01X11328Y13255D01*
G01X11308Y13215D01*
G01X11287Y13194D01*
G01X11226Y13173D01*
G01X11185Y13173D01*
G01X10899Y13553D02*
G01X10899Y13778D01*
G01X11062Y13657D01*
G01X11062Y13717D01*
G01X11083Y13759D01*
G01X11103Y13778D01*
G01X11164Y13800D01*
G01X11205Y13800D01*
G01X11267Y13778D01*
G01X11308Y13738D01*
G01X11328Y13676D01*
G01X11328Y13615D01*
G01X11308Y13553D01*
G01X11287Y13534D01*
G01X11246Y13513D01*
G01X10955Y17505D02*
G01X11282Y17505D01*
G01X11343Y17484D01*
G01X11364Y17464D01*
G01X11384Y17423D01*
G01X11384Y17382D01*
G01X11364Y17341D01*
G01X11343Y17320D01*
G01X11282Y17300D01*
G01X11241Y17300D01*
G01X10955Y17844D02*
G01X11241Y17640D01*
G01X11241Y17946D01*
G01X10955Y17844D02*
G01X11384Y17844D01*
G01X3410Y20552D02*
G01X3737Y20552D01*
G01X3798Y20530D01*
G01X3819Y20511D01*
G01X3839Y20469D01*
G01X3839Y20428D01*
G01X3819Y20388D01*
G01X3798Y20367D01*
G01X3737Y20346D01*
G01X3696Y20346D01*
G01X3410Y20686D02*
G01X3839Y20686D01*
G01X3410Y20686D02*
G01X3410Y20871D01*
G01X3430Y20932D01*
G01X3450Y20952D01*
G01X3491Y20973D01*
G01X3553Y20973D01*
G01X3594Y20952D01*
G01X3614Y20932D01*
G01X3635Y20871D01*
G01X3635Y20686D01*
G01X3512Y21128D02*
G01X3491Y21128D01*
G01X3450Y21148D01*
G01X3430Y21169D01*
G01X3410Y21209D01*
G01X3410Y21292D01*
G01X3430Y21332D01*
G01X3450Y21353D01*
G01X3491Y21373D01*
G01X3532Y21373D01*
G01X3573Y21353D01*
G01X3635Y21311D01*
G01X3839Y21107D01*
G01X3839Y21394D01*
G01X-190Y20468D02*
G01X136Y20468D01*
G01X198Y20447D01*
G01X219Y20427D01*
G01X238Y20386D01*
G01X238Y20345D01*
G01X219Y20304D01*
G01X198Y20283D01*
G01X136Y20263D01*
G01X96Y20263D01*
G01X-190Y20603D02*
G01X238Y20603D01*
G01X-190Y20603D02*
G01X-190Y20787D01*
G01X-169Y20848D01*
G01X-150Y20868D01*
G01X-109Y20889D01*
G01X-46Y20889D01*
G01X-5Y20868D01*
G01X13Y20848D01*
G01X34Y20787D01*
G01X34Y20603D01*
G01X-109Y21024D02*
G01X-128Y21065D01*
G01X-190Y21126D01*
G01X238Y21126D01*
G54D24*
G01X15327Y6927D02*
G01X15645Y6700D01*
G01X15645Y7041D01*
G01X15327Y6927D02*
G01X15805Y6927D01*
G01X15327Y7541D02*
G01X15805Y7541D01*
G01X15327Y7541D02*
G01X15327Y7745D01*
G01X15350Y7814D01*
G01X15373Y7836D01*
G01X15418Y7859D01*
G01X15464Y7859D01*
G01X15509Y7836D01*
G01X15532Y7814D01*
G01X15555Y7745D01*
G01X15555Y7541D02*
G01X15555Y7745D01*
G01X15577Y7814D01*
G01X15600Y7836D01*
G01X15645Y7859D01*
G01X15714Y7859D01*
G01X15759Y7836D01*
G01X15782Y7814D01*
G01X15805Y7745D01*
G01X15805Y7541D01*
G01X15486Y8009D02*
G01X15714Y8009D01*
G01X15782Y8032D01*
G01X15805Y8077D01*
G01X15805Y8145D01*
G01X15782Y8191D01*
G01X15714Y8259D01*
G01X15486Y8259D02*
G01X15805Y8259D01*
G01X15327Y8477D02*
G01X15714Y8477D01*
G01X15782Y8500D01*
G01X15805Y8545D01*
G01X15805Y8591D01*
G01X15486Y8409D02*
G01X15486Y8568D01*
G01X15327Y8809D02*
G01X15714Y8809D01*
G01X15782Y8832D01*
G01X15805Y8877D01*
G01X15805Y8923D01*
G01X15486Y8741D02*
G01X15486Y8900D01*
G01X15486Y9186D02*
G01X15509Y9141D01*
G01X15555Y9095D01*
G01X15623Y9073D01*
G01X15668Y9073D01*
G01X15736Y9095D01*
G01X15782Y9141D01*
G01X15805Y9186D01*
G01X15805Y9255D01*
G01X15782Y9300D01*
G01X15736Y9345D01*
G01X15668Y9368D01*
G01X15623Y9368D01*
G01X15555Y9345D01*
G01X15509Y9300D01*
G01X15486Y9255D01*
G01X15486Y9186D01*
G01X15486Y9518D02*
G01X15805Y9518D01*
G01X15577Y9518D02*
G01X15509Y9586D01*
G01X15486Y9632D01*
G01X15486Y9700D01*
G01X15509Y9745D01*
G01X15577Y9768D01*
G01X15805Y9768D01*
G01X15236Y10327D02*
G01X15964Y9918D01*
G01X15327Y10477D02*
G01X15805Y10477D01*
G01X15805Y10477D02*
G01X15805Y10750D01*
G01X15327Y10900D02*
G01X15805Y10900D01*
G01X15327Y10900D02*
G01X15327Y11195D01*
G01X15555Y10900D02*
G01X15555Y11082D01*
G01X15805Y10900D02*
G01X15805Y11195D01*
G01X15327Y11345D02*
G01X15805Y11345D01*
G01X15327Y11345D02*
G01X15327Y11505D01*
G01X15350Y11573D01*
G01X15395Y11618D01*
G01X15441Y11641D01*
G01X15509Y11664D01*
G01X15623Y11664D01*
G01X15691Y11641D01*
G01X15736Y11618D01*
G01X15782Y11573D01*
G01X15805Y11505D01*
G01X15805Y11345D01*
G01X15327Y12164D02*
G01X15805Y12164D01*
G01X15327Y12482D02*
G01X15805Y12482D01*
G01X15555Y12164D02*
G01X15555Y12482D01*
G01X15486Y12632D02*
G01X15714Y12632D01*
G01X15782Y12655D01*
G01X15805Y12700D01*
G01X15805Y12768D01*
G01X15782Y12814D01*
G01X15714Y12882D01*
G01X15486Y12882D02*
G01X15805Y12882D01*
G01X15327Y13032D02*
G01X15805Y13032D01*
G01X15555Y13032D02*
G01X15509Y13077D01*
G01X15486Y13123D01*
G01X15486Y13191D01*
G01X15509Y13236D01*
G01X15555Y13282D01*
G01X15623Y13305D01*
G01X15668Y13305D01*
G01X15736Y13282D01*
G01X15782Y13236D01*
G01X15805Y13191D01*
G01X15805Y13123D01*
G01X15782Y13077D01*
G01X15736Y13032D01*
G01X16227Y6700D02*
G01X16705Y6700D01*
G01X16455Y6700D02*
G01X16409Y6745D01*
G01X16386Y6791D01*
G01X16386Y6859D01*
G01X16409Y6905D01*
G01X16455Y6950D01*
G01X16523Y6973D01*
G01X16568Y6973D01*
G01X16636Y6950D01*
G01X16682Y6905D01*
G01X16705Y6859D01*
G01X16705Y6791D01*
G01X16682Y6745D01*
G01X16636Y6700D01*
G01X16386Y7145D02*
G01X16705Y7282D01*
G01X16386Y7418D02*
G01X16705Y7282D01*
G01X16795Y7236D01*
G01X16841Y7191D01*
G01X16864Y7145D01*
G01X16864Y7123D01*
G01X16227Y8191D02*
G01X16705Y8191D01*
G01X16455Y8191D02*
G01X16409Y8145D01*
G01X16386Y8100D01*
G01X16386Y8032D01*
G01X16409Y7986D01*
G01X16455Y7941D01*
G01X16523Y7918D01*
G01X16568Y7918D01*
G01X16636Y7941D01*
G01X16682Y7986D01*
G01X16705Y8032D01*
G01X16705Y8100D01*
G01X16682Y8145D01*
G01X16636Y8191D01*
G01X16523Y8341D02*
G01X16523Y8614D01*
G01X16477Y8614D01*
G01X16432Y8591D01*
G01X16409Y8568D01*
G01X16386Y8523D01*
G01X16386Y8455D01*
G01X16409Y8409D01*
G01X16455Y8364D01*
G01X16523Y8341D01*
G01X16568Y8341D01*
G01X16636Y8364D01*
G01X16682Y8409D01*
G01X16705Y8455D01*
G01X16705Y8523D01*
G01X16682Y8568D01*
G01X16636Y8614D01*
G01X16386Y8764D02*
G01X16705Y8764D01*
G01X16523Y8764D02*
G01X16455Y8786D01*
G01X16409Y8832D01*
G01X16386Y8877D01*
G01X16386Y8945D01*
G01X16523Y9095D02*
G01X16523Y9368D01*
G01X16477Y9368D01*
G01X16432Y9345D01*
G01X16409Y9323D01*
G01X16386Y9277D01*
G01X16386Y9209D01*
G01X16409Y9164D01*
G01X16455Y9118D01*
G01X16523Y9095D01*
G01X16568Y9095D01*
G01X16636Y9118D01*
G01X16682Y9164D01*
G01X16705Y9209D01*
G01X16705Y9277D01*
G01X16682Y9323D01*
G01X16636Y9368D01*
G01X16227Y9518D02*
G01X16705Y9518D01*
G01X16455Y9518D02*
G01X16409Y9564D01*
G01X16386Y9609D01*
G01X16386Y9677D01*
G01X16409Y9723D01*
G01X16455Y9768D01*
G01X16523Y9791D01*
G01X16568Y9791D01*
G01X16636Y9768D01*
G01X16682Y9723D01*
G01X16705Y9677D01*
G01X16705Y9609D01*
G01X16682Y9564D01*
G01X16636Y9518D01*
G01X16227Y9941D02*
G01X16705Y9941D01*
G01X16455Y9941D02*
G01X16409Y9986D01*
G01X16386Y10032D01*
G01X16386Y10100D01*
G01X16409Y10145D01*
G01X16455Y10191D01*
G01X16523Y10214D01*
G01X16568Y10214D01*
G01X16636Y10191D01*
G01X16682Y10145D01*
G01X16705Y10100D01*
G01X16705Y10032D01*
G01X16682Y9986D01*
G01X16636Y9941D01*
G01X16523Y10364D02*
G01X16523Y10636D01*
G01X16477Y10636D01*
G01X16432Y10614D01*
G01X16409Y10591D01*
G01X16386Y10545D01*
G01X16386Y10477D01*
G01X16409Y10432D01*
G01X16455Y10386D01*
G01X16523Y10364D01*
G01X16568Y10364D01*
G01X16636Y10386D01*
G01X16682Y10432D01*
G01X16705Y10477D01*
G01X16705Y10545D01*
G01X16682Y10591D01*
G01X16636Y10636D01*
G01X16136Y11295D02*
G01X16182Y11250D01*
G01X16250Y11205D01*
G01X16341Y11159D01*
G01X16455Y11136D01*
G01X16545Y11136D01*
G01X16659Y11159D01*
G01X16750Y11205D01*
G01X16818Y11250D01*
G01X16864Y11295D01*
G01X16386Y11445D02*
G01X16705Y11582D01*
G01X16386Y11718D02*
G01X16705Y11582D01*
G01X16341Y11891D02*
G01X16318Y11891D01*
G01X16273Y11914D01*
G01X16250Y11936D01*
G01X16227Y11982D01*
G01X16227Y12073D01*
G01X16250Y12118D01*
G01X16273Y12141D01*
G01X16318Y12164D01*
G01X16364Y12164D01*
G01X16409Y12141D01*
G01X16477Y12095D01*
G01X16705Y11868D01*
G01X16705Y12186D01*
G01X16227Y12473D02*
G01X16250Y12405D01*
G01X16318Y12359D01*
G01X16432Y12336D01*
G01X16500Y12336D01*
G01X16614Y12359D01*
G01X16682Y12405D01*
G01X16705Y12473D01*
G01X16705Y12518D01*
G01X16682Y12586D01*
G01X16614Y12632D01*
G01X16500Y12655D01*
G01X16432Y12655D01*
G01X16318Y12632D01*
G01X16250Y12586D01*
G01X16227Y12518D01*
G01X16227Y12473D01*
G01X16318Y12805D02*
G01X16295Y12850D01*
G01X16227Y12918D01*
G01X16705Y12918D01*
G01X16386Y13364D02*
G01X16455Y13341D01*
G01X16500Y13295D01*
G01X16523Y13227D01*
G01X16523Y13205D01*
G01X16500Y13136D01*
G01X16455Y13091D01*
G01X16386Y13068D01*
G01X16364Y13068D01*
G01X16295Y13091D01*
G01X16250Y13136D01*
G01X16227Y13205D01*
G01X16227Y13227D01*
G01X16250Y13295D01*
G01X16295Y13341D01*
G01X16386Y13364D01*
G01X16500Y13364D01*
G01X16614Y13341D01*
G01X16682Y13295D01*
G01X16705Y13227D01*
G01X16705Y13182D01*
G01X16682Y13114D01*
G01X16636Y13091D01*
G01X16227Y13650D02*
G01X16250Y13582D01*
G01X16318Y13536D01*
G01X16432Y13514D01*
G01X16500Y13514D01*
G01X16614Y13536D01*
G01X16682Y13582D01*
G01X16705Y13650D01*
G01X16705Y13695D01*
G01X16682Y13764D01*
G01X16614Y13809D01*
G01X16500Y13832D01*
G01X16432Y13832D01*
G01X16318Y13809D01*
G01X16250Y13764D01*
G01X16227Y13695D01*
G01X16227Y13650D01*
G01X16318Y13982D02*
G01X16295Y14027D01*
G01X16227Y14095D01*
G01X16705Y14095D01*
G01X16318Y14245D02*
G01X16295Y14291D01*
G01X16227Y14359D01*
G01X16705Y14359D01*
G01X16227Y14555D02*
G01X16227Y14805D01*
G01X16409Y14668D01*
G01X16409Y14736D01*
G01X16432Y14782D01*
G01X16455Y14805D01*
G01X16523Y14827D01*
G01X16568Y14827D01*
G01X16636Y14805D01*
G01X16682Y14759D01*
G01X16705Y14691D01*
G01X16705Y14623D01*
G01X16682Y14555D01*
G01X16659Y14532D01*
G01X16614Y14509D01*
G01X16136Y14977D02*
G01X16182Y15023D01*
G01X16250Y15068D01*
G01X16341Y15114D01*
G01X16455Y15136D01*
G01X16545Y15136D01*
G01X16659Y15114D01*
G01X16750Y15068D01*
G01X16818Y15023D01*
G01X16864Y14977D01*
G54D10*
G75*
G01X19058Y11873D02*
G03X17538Y11873I-760J661D01*
G01*
G75*
G01X21925Y11873D02*
G03X20405Y11873I-760J661D01*
G01*
G75*
G01X27658Y11873D02*
G03X26138Y11873I-760J661D01*
G01*
G75*
G01X24791Y11873D02*
G03X23271Y11873I-760J661D01*
G01*
M00*
M02*
